Twelve-Heavy.ufo
<glyph name="exclam" format="1">
  <advance width="464"/>
  <unicode hex="0021"/>
  <outline>
    <contour>
      <point x="144" y="0" type="curve" smooth="yes"/>
      <point x="316" y="0" type="line" smooth="yes"/>
      <point x="331" y="0"/>
      <point x="343" y="4"/>
      <point x="343" y="47" type="curve" smooth="yes"/>
      <point x="343" y="233" type="line" smooth="yes"/>
      <point x="343" y="276"/>
      <point x="331" y="280"/>
      <point x="316" y="280" type="curve" smooth="yes"/>
      <point x="144" y="280" type="line" smooth="yes"/>
      <point x="129" y="280"/>
      <point x="117" y="276"/>
      <point x="117" y="233" type="curve" smooth="yes"/>
      <point x="117" y="47" type="line" smooth="yes"/>
      <point x="117" y="4"/>
      <point x="129" y="0"/>
    </contour>
    <contour>
      <point x="204" y="530" type="curve" smooth="yes"/>
      <point x="262" y="530" type="line" smooth="yes"/>
      <point x="278" y="530"/>
      <point x="286" y="565"/>
      <point x="288" y="607" type="curve" smooth="yes"/>
      <point x="335" y="1459" type="line" smooth="yes"/>
      <point x="338.00525187" y="1502.03438903"/>
      <point x="324.998260952" y="1536.0"/>
      <point x="310" y="1536" type="curve" smooth="yes"/>
      <point x="156" y="1536" type="line" smooth="yes"/>
      <point x="141.000795255" y="1536.0"/>
      <point x="128.005356643" y="1501.95034965"/>
      <point x="130" y="1459" type="curve" smooth="yes"/>
      <point x="177" y="607" type="line" smooth="yes"/>
      <point x="179" y="565"/>
      <point x="189" y="530"/>
    </contour>
  </outline>
</glyph>
<glyph name="quotedbl" format="1">
  <advance width="616"/>
  <unicode hex="0022"/>
  <outline>
    <contour>
      <point x="151" y="674" type="curve" smooth="yes"/>
      <point x="182" y="674" type="line" smooth="yes"/>
      <point x="197" y="674"/>
      <point x="205" y="709"/>
      <point x="208" y="751" type="curve" smooth="yes"/>
      <point x="254" y="1459" type="line" smooth="yes"/>
      <point x="256.001333333" y="1502.06666667"/>
      <point x="244.998057143" y="1536.0"/>
      <point x="230" y="1536" type="curve" smooth="yes"/>
      <point x="103" y="1536" type="line" smooth="yes"/>
      <point x="88.0019607355" y="1536.0"/>
      <point x="74.9967925187" y="1502.03438903"/>
      <point x="78" y="1459" type="curve" smooth="yes"/>
      <point x="124" y="751" type="line" smooth="yes"/>
      <point x="126" y="709"/>
      <point x="136" y="674"/>
    </contour>
    <contour>
      <point x="444" y="674" type="curve" smooth="yes"/>
      <point x="475" y="674" type="line" smooth="yes"/>
      <point x="490" y="674"/>
      <point x="499" y="709"/>
      <point x="501" y="751" type="curve" smooth="yes"/>
      <point x="547" y="1459" type="line" smooth="yes"/>
      <point x="550.000508685" y="1502.02424318"/>
      <point x="537.000480519" y="1536.0"/>
      <point x="523" y="1536" type="curve" smooth="yes"/>
      <point x="396" y="1536" type="line" smooth="yes"/>
      <point x="381.001782801" y="1536.0"/>
      <point x="368.997908197" y="1502.03816393"/>
      <point x="371" y="1459" type="curve" smooth="yes"/>
      <point x="417" y="751" type="line" smooth="yes"/>
      <point x="420" y="709"/>
      <point x="429" y="674"/>
    </contour>
  </outline>
</glyph>
<glyph name="percent" format="1">
  <advance width="1033"/>
  <unicode hex="0025"/>
  <outline>
    <contour>
      <point x="362" y="-82" type="curve" smooth="yes"/>
      <point x="419" y="-82" type="line" smooth="yes"/>
      <point x="434" y="-82"/>
      <point x="448" y="-54"/>
      <point x="455" y="-12" type="curve" smooth="yes"/>
      <point x="678" y="1466" type="line" smooth="yes"/>
      <point x="683.999985583" y="1499.0148886"/>
      <point x="676.0000088" y="1536.0"/>
      <point x="664" y="1536" type="curve" smooth="yes"/>
      <point x="607" y="1536" type="line" smooth="yes"/>
      <point x="591" y="1536"/>
      <point x="576" y="1508"/>
      <point x="570" y="1466" type="curve" smooth="yes"/>
      <point x="346" y="-12" type="line" smooth="yes"/>
      <point x="341.001735096" y="-45.0002402167"/>
      <point x="349.000596393" y="-82.0"/>
    </contour>
    <contour>
      <point x="186" y="732" type="curve" smooth="yes"/>
      <point x="127" y="732"/>
      <point x="109" y="837"/>
      <point x="109" y="1021" type="curve" smooth="yes"/>
      <point x="109" y="1209"/>
      <point x="128" y="1320"/>
      <point x="186" y="1320" type="curve" smooth="yes"/>
      <point x="243" y="1320"/>
      <point x="263" y="1209"/>
      <point x="263" y="1021" type="curve" smooth="yes"/>
      <point x="263" y="837"/>
      <point x="244" y="732"/>
    </contour>
    <contour>
      <point x="186" y="592" type="curve" smooth="yes"/>
      <point x="307" y="592"/>
      <point x="379" y="731"/>
      <point x="379" y="1029" type="curve" smooth="yes"/>
      <point x="379" y="1325"/>
      <point x="309" y="1460"/>
      <point x="186" y="1460" type="curve" smooth="yes"/>
      <point x="62" y="1460"/>
      <point x="-8" y="1325"/>
      <point x="-8" y="1029" type="curve" smooth="yes"/>
      <point x="-8" y="731"/>
      <point x="64" y="592"/>
    </contour>
    <contour>
      <point x="833" y="140" type="curve" smooth="yes"/>
      <point x="774" y="140"/>
      <point x="756" y="245"/>
      <point x="756" y="429" type="curve" smooth="yes"/>
      <point x="756" y="617"/>
      <point x="775" y="728"/>
      <point x="833" y="728" type="curve" smooth="yes"/>
      <point x="890" y="728"/>
      <point x="910" y="617"/>
      <point x="910" y="429" type="curve" smooth="yes"/>
      <point x="910" y="245"/>
      <point x="891" y="140"/>
    </contour>
    <contour>
      <point x="833" y="0" type="curve" smooth="yes"/>
      <point x="954" y="0"/>
      <point x="1026" y="139"/>
      <point x="1026" y="437" type="curve" smooth="yes"/>
      <point x="1026" y="733"/>
      <point x="956" y="868"/>
      <point x="833" y="868" type="curve" smooth="yes"/>
      <point x="709" y="868"/>
      <point x="639" y="733"/>
      <point x="639" y="437" type="curve" smooth="yes"/>
      <point x="639" y="139"/>
      <point x="711" y="0"/>
    </contour>
  </outline>
</glyph>
<glyph name="quotesingle" format="1">
  <advance width="355"/>
  <unicode hex="0027"/>
  <outline>
    <contour>
      <point x="162.6" y="674" type="curve" smooth="yes"/>
      <point x="193.6" y="674" type="line" smooth="yes"/>
      <point x="208.6" y="674"/>
      <point x="216.6" y="709"/>
      <point x="219.6" y="751" type="curve" smooth="yes"/>
      <point x="265.6" y="1459" type="line" smooth="yes"/>
      <point x="267.601333333" y="1502.06666667"/>
      <point x="256.596971429" y="1536.0"/>
      <point x="241.6" y="1536" type="curve" smooth="yes"/>
      <point x="114.6" y="1536" type="line" smooth="yes"/>
      <point x="99.6017390481" y="1536.0"/>
      <point x="86.5963925187" y="1502.03438903"/>
      <point x="89.5996" y="1459" type="curve" smooth="yes"/>
      <point x="135.6" y="751" type="line" smooth="yes"/>
      <point x="137.6" y="709"/>
      <point x="147.6" y="674"/>
    </contour>
  </outline>
</glyph>
<glyph name="parenright" format="1">
  <advance width="486"/>
  <unicode hex="0029"/>
  <outline>
    <contour>
      <point x="138" y="-143" type="curve" smooth="yes"/>
      <point x="295" y="-103"/>
      <point x="373" y="297"/>
      <point x="373" y="698" type="curve" smooth="yes"/>
      <point x="373" y="1098"/>
      <point x="295" y="1499"/>
      <point x="138" y="1540" type="curve" smooth="yes"/>
      <point x="124.996136015" y="1542.98367816"/>
      <point x="112.0" y="1507.99824436"/>
      <point x="112" y="1470" type="curve" smooth="yes"/>
      <point x="112" y="1372" type="line" smooth="yes"/>
      <point x="112" y="1303"/>
      <point x="117" y="1282"/>
      <point x="138" y="1251" type="curve" smooth="yes"/>
      <point x="183" y="1185"/>
      <point x="206" y="941"/>
      <point x="206" y="698" type="curve" smooth="yes"/>
      <point x="206" y="456"/>
      <point x="183" y="213"/>
      <point x="137" y="147" type="curve" smooth="yes"/>
      <point x="116" y="117"/>
      <point x="112" y="96"/>
      <point x="112" y="27" type="curve" smooth="yes"/>
      <point x="112" y="-73" type="line" smooth="yes"/>
      <point x="112.0" y="-111.000328169"/>
      <point x="124.996136015" y="-146.008542146"/>
    </contour>
  </outline>
</glyph>
<glyph name="plus" format="1">
  <advance width="801"/>
  <unicode hex="002B"/>
  <outline>
    <contour>
      <point x="349" y="250" type="curve" smooth="yes"/>
      <point x="451" y="250" type="line" smooth="yes"/>
      <point x="469" y="250"/>
      <point x="482" y="254"/>
      <point x="482" y="295" type="curve" smooth="yes"/>
      <point x="482" y="509" type="line" smooth="yes"/>
      <point x="482" y="529"/>
      <point x="489" y="531"/>
      <point x="499" y="531" type="curve" smooth="yes"/>
      <point x="668" y="531" type="line" smooth="yes"/>
      <point x="684" y="531"/>
      <point x="699" y="535"/>
      <point x="699" y="576" type="curve" smooth="yes"/>
      <point x="699" y="623" type="line" smooth="yes"/>
      <point x="699" y="665"/>
      <point x="684" y="668"/>
      <point x="668" y="668" type="curve" smooth="yes"/>
      <point x="499" y="668" type="line" smooth="yes"/>
      <point x="489" y="668"/>
      <point x="482" y="670"/>
      <point x="482" y="690" type="curve" smooth="yes"/>
      <point x="482" y="891" type="line" smooth="yes"/>
      <point x="482" y="932"/>
      <point x="469" y="936"/>
      <point x="451" y="936" type="curve" smooth="yes"/>
      <point x="349" y="936" type="line" smooth="yes"/>
      <point x="330" y="936"/>
      <point x="316" y="932"/>
      <point x="316" y="891" type="curve" smooth="yes"/>
      <point x="316" y="690" type="line" smooth="yes"/>
      <point x="316" y="670"/>
      <point x="310" y="668"/>
      <point x="301" y="668" type="curve" smooth="yes"/>
      <point x="129" y="668" type="line" smooth="yes"/>
      <point x="112" y="668"/>
      <point x="98" y="665"/>
      <point x="98" y="623" type="curve" smooth="yes"/>
      <point x="98" y="576" type="line" smooth="yes"/>
      <point x="98" y="535"/>
      <point x="112" y="531"/>
      <point x="129" y="531" type="curve" smooth="yes"/>
      <point x="301" y="531" type="line" smooth="yes"/>
      <point x="310" y="531"/>
      <point x="316" y="529"/>
      <point x="316" y="509" type="curve" smooth="yes"/>
      <point x="316" y="295" type="line" smooth="yes"/>
      <point x="316" y="254"/>
      <point x="330" y="250"/>
    </contour>
  </outline>
</glyph>
<glyph name="comma" format="1">
  <advance width="459"/>
  <unicode hex="002C"/>
  <outline>
    <contour>
      <point x="131" y="-342" type="curve" smooth="yes"/>
      <point x="179" y="-319"/>
      <point x="300" y="-212"/>
      <point x="300" y="25" type="curve" smooth="yes"/>
      <point x="300" y="245" type="line" smooth="yes"/>
      <point x="300" y="288"/>
      <point x="288" y="302"/>
      <point x="274" y="302" type="curve" smooth="yes"/>
      <point x="126" y="302" type="line" smooth="yes"/>
      <point x="111" y="302"/>
      <point x="105" y="288"/>
      <point x="105" y="245" type="curve" smooth="yes"/>
      <point x="105" y="60" type="line" smooth="yes"/>
      <point x="105" y="22"/>
      <point x="112" y="0"/>
      <point x="126" y="0" type="curve" smooth="yes"/>
      <point x="177" y="0" type="line" smooth="yes"/>
      <point x="182" y="0"/>
      <point x="183" y="-11"/>
      <point x="183" y="-27" type="curve" smooth="yes"/>
      <point x="183" y="-91"/>
      <point x="164" y="-166"/>
      <point x="129" y="-201" type="curve" smooth="yes"/>
      <point x="107" y="-223"/>
      <point x="105" y="-222"/>
      <point x="105" y="-276" type="curve" smooth="yes"/>
      <point x="105" y="-297" type="line" smooth="yes"/>
      <point x="105.0" y="-333.002283468"/>
      <point x="119.006897143" y="-347.996551429"/>
    </contour>
  </outline>
</glyph>
<glyph name="zero" format="1">
  <advance width="947"/>
  <unicode hex="0030"/>
  <outline>
    <contour>
      <point x="472" y="200" type="curve" smooth="yes"/>
      <point x="375" y="200"/>
      <point x="357" y="356"/>
      <point x="357" y="719" type="curve" smooth="yes"/>
      <point x="357" y="1082"/>
      <point x="372" y="1241"/>
      <point x="469" y="1241" type="curve" smooth="yes"/>
      <point x="565" y="1241"/>
      <point x="587" y="1082"/>
      <point x="587" y="719" type="curve" smooth="yes"/>
      <point x="587" y="356"/>
      <point x="568" y="200"/>
    </contour>
    <contour>
      <point x="471" y="-16" type="curve" smooth="yes"/>
      <point x="652" y="-16"/>
      <point x="834" y="117"/>
      <point x="834" y="719" type="curve" smooth="yes"/>
      <point x="834" y="1368"/>
      <point x="651" y="1456"/>
      <point x="470" y="1456" type="curve" smooth="yes"/>
      <point x="288" y="1456"/>
      <point x="111" y="1368"/>
      <point x="111" y="719" type="curve" smooth="yes"/>
      <point x="111" y="117"/>
      <point x="289" y="-16"/>
    </contour>
  </outline>
</glyph>
<glyph name="one" format="1">
  <advance width="608"/>
  <unicode hex="0031"/>
  <outline>
    <contour>
      <point x="213" y="0" type="curve" smooth="yes"/>
      <point x="431" y="0" type="line" smooth="yes"/>
      <point x="446" y="0"/>
      <point x="458" y="24"/>
      <point x="458" y="67" type="curve" smooth="yes"/>
      <point x="458" y="1381" type="line" smooth="yes"/>
      <point x="458.0" y="1423.99672551"/>
      <point x="446.00456321" y="1439.96730824"/>
      <point x="431" y="1436" type="curve" smooth="yes"/>
      <point x="105" y="1355" type="line" smooth="yes"/>
      <point x="91" y="1352"/>
      <point x="79" y="1339"/>
      <point x="79" y="1296" type="curve" smooth="yes"/>
      <point x="79" y="1167" type="line" smooth="yes"/>
      <point x="79" y="1128.23"/>
      <point x="87.9435" y="1111.41"/>
      <point x="100.699" y="1111.41" type="curve" smooth="yes"/>
      <point x="102.089" y="1111.41"/>
      <point x="174" y="1128"/>
      <point x="174" y="1128" type="curve" smooth="yes"/>
      <point x="181" y="1129"/>
      <point x="187" y="1112"/>
      <point x="187" y="1092" type="curve" smooth="yes"/>
      <point x="187" y="67" type="line" smooth="yes"/>
      <point x="187" y="24"/>
      <point x="199" y="0"/>
    </contour>
  </outline>
</glyph>
<glyph name="four" format="1">
  <advance width="919"/>
  <unicode hex="0034"/>
  <outline>
    <contour>
      <point x="566" y="-1" type="curve" smooth="yes"/>
      <point x="710" y="-1" type="line" smooth="yes"/>
      <point x="735" y="-1"/>
      <point x="749" y="25"/>
      <point x="749" y="67" type="curve" smooth="yes"/>
      <point x="749" y="286" type="line"/>
      <point x="854" y="286" type="line" smooth="yes"/>
      <point x="878" y="286"/>
      <point x="893" y="312"/>
      <point x="893" y="353" type="curve" smooth="yes"/>
      <point x="893" y="447" type="line" smooth="yes"/>
      <point x="893" y="488"/>
      <point x="878" y="514"/>
      <point x="854" y="514" type="curve" smooth="yes"/>
      <point x="749" y="514" type="line"/>
      <point x="749" y="1370" type="line" smooth="yes"/>
      <point x="749" y="1412"/>
      <point x="735" y="1438"/>
      <point x="710" y="1438" type="curve" smooth="yes"/>
      <point x="566" y="1438" type="line" smooth="yes"/>
      <point x="542" y="1438"/>
      <point x="527" y="1412"/>
      <point x="527" y="1370" type="curve" smooth="yes"/>
      <point x="527" y="514" type="line"/>
      <point x="349" y="514" type="line" smooth="yes"/>
      <point x="339.0" y="514.0"/>
      <point x="332" y="547"/>
      <point x="332" y="547" type="curve" smooth="yes"/>
      <point x="416" y="1370" type="line" smooth="yes"/>
      <point x="425.25" y="1416.25"/>
      <point x="400.545454545" y="1438.0"/>
      <point x="377" y="1438" type="curve" smooth="yes"/>
      <point x="261" y="1438" type="line" smooth="yes"/>
      <point x="237" y="1438"/>
      <point x="230" y="1411"/>
      <point x="222" y="1370" type="curve"/>
      <point x="73" y="353" type="line" smooth="yes"/>
      <point x="65.4" y="315.0"/>
      <point x="86.8181818182" y="286.0"/>
      <point x="111" y="286" type="curve" smooth="yes"/>
      <point x="527" y="286" type="line"/>
      <point x="527" y="67" type="line" smooth="yes"/>
      <point x="527" y="25"/>
      <point x="542" y="-1"/>
    </contour>
  </outline>
</glyph>
<glyph name="nine" format="1">
  <advance width="941"/>
  <unicode hex="0039"/>
  <outline>
    <contour>
      <point x="447" y="-16" type="curve" smooth="yes"/>
      <point x="735" y="-16"/>
      <point x="827" y="198"/>
      <point x="827" y="778" type="curve" smooth="yes"/>
      <point x="827" y="1308"/>
      <point x="677" y="1456"/>
      <point x="467" y="1456" type="curve" smooth="yes"/>
      <point x="260" y="1456"/>
      <point x="111" y="1380"/>
      <point x="111" y="989" type="curve" smooth="yes"/>
      <point x="111" y="708"/>
      <point x="212" y="502"/>
      <point x="436" y="502" type="curve" smooth="yes"/>
      <point x="482" y="502"/>
      <point x="521" y="527"/>
      <point x="564" y="546" type="curve"/>
      <point x="564" y="530" type="line" smooth="yes"/>
      <point x="564" y="310"/>
      <point x="543" y="214"/>
      <point x="432" y="214" type="curve" smooth="yes"/>
      <point x="318" y="214"/>
      <point x="207" y="274"/>
      <point x="195" y="281" type="curve" smooth="yes"/>
      <point x="179" y="292"/>
      <point x="173" y="278"/>
      <point x="171" y="240" type="curve" smooth="yes"/>
      <point x="163" y="135" type="line" smooth="yes"/>
      <point x="163" y="135"/>
      <point x="168" y="81"/>
      <point x="181" y="71" type="curve" smooth="yes"/>
      <point x="219" y="38"/>
      <point x="365" y="-16"/>
    </contour>
    <contour>
      <point x="453" y="720" type="curve" smooth="yes"/>
      <point x="385" y="720"/>
      <point x="367" y="824"/>
      <point x="367" y="969" type="curve" smooth="yes"/>
      <point x="367" y="1196"/>
      <point x="403" y="1232"/>
      <point x="461" y="1232" type="curve" smooth="yes"/>
      <point x="521" y="1232"/>
      <point x="564" y="1187"/>
      <point x="564" y="932" type="curve" smooth="yes"/>
      <point x="564" y="761" type="line"/>
      <point x="524" y="735"/>
      <point x="486" y="720"/>
    </contour>
  </outline>
</glyph>
<glyph name="colon" format="1">
  <advance width="368"/>
  <unicode hex="003A"/>
  <outline>
    <contour>
      <point x="131" y="0" type="curve" smooth="yes"/>
      <point x="242" y="0" type="line" smooth="yes"/>
      <point x="257" y="0"/>
      <point x="269" y="14"/>
      <point x="269" y="57" type="curve" smooth="yes"/>
      <point x="269" y="293" type="line" smooth="yes"/>
      <point x="269" y="336"/>
      <point x="257" y="350"/>
      <point x="242" y="350" type="curve" smooth="yes"/>
      <point x="131" y="350" type="line" smooth="yes"/>
      <point x="116" y="350"/>
      <point x="104" y="336"/>
      <point x="104" y="293" type="curve" smooth="yes"/>
      <point x="104" y="57" type="line" smooth="yes"/>
      <point x="104" y="14"/>
      <point x="116" y="0"/>
    </contour>
    <contour>
      <point x="131" y="656" type="curve" smooth="yes"/>
      <point x="242" y="656" type="line" smooth="yes"/>
      <point x="257" y="656"/>
      <point x="269" y="670"/>
      <point x="269" y="713" type="curve" smooth="yes"/>
      <point x="269" y="949" type="line" smooth="yes"/>
      <point x="269" y="992"/>
      <point x="257" y="1006"/>
      <point x="242" y="1006" type="curve" smooth="yes"/>
      <point x="131" y="1006" type="line" smooth="yes"/>
      <point x="116" y="1006"/>
      <point x="104" y="992"/>
      <point x="104" y="949" type="curve" smooth="yes"/>
      <point x="104" y="713" type="line" smooth="yes"/>
      <point x="104" y="670"/>
      <point x="116" y="656"/>
    </contour>
  </outline>
</glyph>
<glyph name="less" format="1">
  <advance width="1384"/>
  <unicode hex="003C"/>
  <outline>
    <contour>
      <point x="598" y="169" type="curve" smooth="yes"/>
      <point x="625" y="169"/>
      <point x="644" y="191"/>
      <point x="644" y="213" type="curve" smooth="yes"/>
      <point x="644" y="295" type="line" smooth="yes"/>
      <point x="644" y="344"/>
      <point x="619" y="361"/>
      <point x="583" y="397" type="curve"/>
      <point x="367" y="623" type="line" smooth="yes"/>
      <point x="360" y="630"/>
      <point x="356" y="637"/>
      <point x="356" y="644" type="curve" smooth="yes"/>
      <point x="356" y="650"/>
      <point x="359" y="657"/>
      <point x="367" y="665" type="curve" smooth="yes"/>
      <point x="583" y="884" type="line" smooth="yes"/>
      <point x="619" y="920"/>
      <point x="644" y="936"/>
      <point x="644" y="985" type="curve" smooth="yes"/>
      <point x="644" y="1063" type="line" smooth="yes"/>
      <point x="644" y="1085"/>
      <point x="625" y="1107"/>
      <point x="598" y="1107" type="curve" smooth="yes"/>
      <point x="588" y="1107"/>
      <point x="577" y="1103"/>
      <point x="566" y="1097" type="curve"/>
      <point x="269" y="799" type="line" smooth="yes"/>
      <point x="229" y="759"/>
      <point x="196" y="728"/>
      <point x="196" y="678" type="curve" smooth="yes"/>
      <point x="196" y="606" type="line" smooth="yes"/>
      <point x="196" y="556"/>
      <point x="229" y="528"/>
      <point x="268" y="488" type="curve" smooth="yes"/>
      <point x="566" y="179" type="line"/>
      <point x="578" y="173"/>
      <point x="589" y="169"/>
    </contour>
  </outline>
</glyph>
<glyph name="at" format="1">
  <advance width="1477"/>
  <unicode hex="0040"/>
  <outline>
    <contour>
      <point x="778" y="-185" type="curve" smooth="yes"/>
      <point x="874" y="-185"/>
      <point x="991" y="-161"/>
      <point x="1067" y="-119" type="curve" smooth="yes"/>
      <point x="1105.00221289" y="-98.0031798614"/>
      <point x="1054.08127162" y="22.0344648765"/>
      <point x="1020" y="7" type="curve" smooth="yes"/>
      <point x="960" y="-19"/>
      <point x="865" y="-47"/>
      <point x="788" y="-47" type="curve" smooth="yes"/>
      <point x="411" y="-47"/>
      <point x="259" y="303"/>
      <point x="259" y="652" type="curve" smooth="yes"/>
      <point x="259" y="1033"/>
      <point x="436" y="1377"/>
      <point x="772" y="1377" type="curve" smooth="yes"/>
      <point x="1105" y="1377"/>
      <point x="1270" y="1089"/>
      <point x="1270" y="715" type="curve" smooth="yes"/>
      <point x="1270" y="420"/>
      <point x="1209" y="348"/>
      <point x="1174" y="348" type="curve" smooth="yes"/>
      <point x="1140" y="348"/>
      <point x="1110" y="381"/>
      <point x="1110" y="474" type="curve" smooth="yes"/>
      <point x="1110" y="1013" type="line" smooth="yes"/>
      <point x="1110" y="1047"/>
      <point x="1090" y="1074"/>
      <point x="1066" y="1074" type="curve" smooth="yes"/>
      <point x="1056" y="1074" type="line" smooth="yes"/>
      <point x="1029" y="1074"/>
      <point x="1009" y="1062"/>
      <point x="1004" y="1024" type="curve"/>
      <point x="992" y="899" type="line" smooth="yes"/>
      <point x="991" y="891"/>
      <point x="990" y="886"/>
      <point x="988" y="886" type="curve" smooth="yes"/>
      <point x="986" y="886"/>
      <point x="984" y="890"/>
      <point x="982" y="898" type="curve" smooth="yes"/>
      <point x="940.886" y="1018.26"/>
      <point x="875.407" y="1119.57"/>
      <point x="723.271" y="1119.57" type="curve" smooth="yes"/>
      <point x="545.244" y="1119.57"/>
      <point x="429" y="943.72"/>
      <point x="429" y="661" type="curve" smooth="yes"/>
      <point x="429" y="361.96"/>
      <point x="561.993" y="188.421"/>
      <point x="741.874" y="188.421" type="curve" smooth="yes"/>
      <point x="898.965" y="188.421"/>
      <point x="951.954" y="282.692"/>
      <point x="990" y="403" type="curve" smooth="yes"/>
      <point x="993" y="412"/>
      <point x="998" y="427"/>
      <point x="1003" y="427" type="curve" smooth="yes"/>
      <point x="1008" y="427"/>
      <point x="1012" y="410"/>
      <point x="1014" y="389" type="curve" smooth="yes"/>
      <point x="1019" y="293"/>
      <point x="1096" y="223"/>
      <point x="1177" y="223" type="curve" smooth="yes"/>
      <point x="1276" y="223"/>
      <point x="1415" y="361"/>
      <point x="1415" y="715" type="curve" smooth="yes"/>
      <point x="1414" y="1175"/>
      <point x="1181" y="1519"/>
      <point x="769" y="1519" type="curve" smooth="yes"/>
      <point x="358" y="1519"/>
      <point x="101" y="1151"/>
      <point x="101" y="657" type="curve" smooth="yes"/>
      <point x="101" y="193"/>
      <point x="366" y="-185"/>
    </contour>
    <contour>
      <point x="765" y="341" type="curve" smooth="yes"/>
      <point x="630" y="341"/>
      <point x="583" y="500"/>
      <point x="583" y="647" type="curve" smooth="yes"/>
      <point x="583" y="789"/>
      <point x="618" y="958"/>
      <point x="764" y="958" type="curve" smooth="yes"/>
      <point x="874" y="958"/>
      <point x="952" y="853"/>
      <point x="952" y="652" type="curve" smooth="yes"/>
      <point x="952" y="436"/>
      <point x="876" y="341"/>
    </contour>
  </outline>
</glyph>
<glyph name="A" format="1">
  <advance width="866"/>
  <unicode hex="0041"/>
  <outline>
    <contour>
      <point x="65" y="0" type="curve" smooth="yes"/>
      <point x="65" y="0"/>
      <point x="244.568" y="-0.296296"/>
      <point x="247.638" y="-0.296296" type="curve" smooth="yes"/>
      <point x="258.383" y="-0.296296"/>
      <point x="267.111" y="3.33333"/>
      <point x="271" y="36" type="curve" smooth="yes"/>
      <point x="304" y="263" type="line"/>
      <point x="308" y="283"/>
      <point x="308" y="296"/>
      <point x="319" y="296" type="curve" smooth="yes"/>
      <point x="507" y="296" type="line" smooth="yes"/>
      <point x="518" y="296"/>
      <point x="518" y="284"/>
      <point x="522" y="264" type="curve"/>
      <point x="552" y="35" type="line"/>
      <point x="557.415" y="3.28302"/>
      <point x="565.822" y="-0.307583"/>
      <point x="576.759" y="-0.307583" type="curve" smooth="yes"/>
      <point x="579.96" y="-0.307583"/>
      <point x="815" y="0"/>
      <point x="815" y="0" type="curve" smooth="yes"/>
      <point x="825" y="0"/>
      <point x="832" y="2"/>
      <point x="832" y="27" type="curve" smooth="yes"/>
      <point x="832" y="34"/>
      <point x="831" y="62"/>
      <point x="830" y="69" type="curve" smooth="yes"/>
      <point x="620" y="1393" type="line" smooth="yes"/>
      <point x="613" y="1434"/>
      <point x="599" y="1438"/>
      <point x="583" y="1438" type="curve" smooth="yes"/>
      <point x="295" y="1438" type="line" smooth="yes"/>
      <point x="279" y="1438"/>
      <point x="265" y="1434"/>
      <point x="258" y="1393" type="curve" smooth="yes"/>
      <point x="50" y="69" type="line"/>
      <point x="50" y="62"/>
      <point x="49" y="34"/>
      <point x="49" y="27" type="curve" smooth="yes"/>
      <point x="49" y="2"/>
      <point x="56" y="0"/>
    </contour>
    <contour>
      <point x="349" y="456" type="line" smooth="yes"/>
      <point x="334" y="456"/>
      <point x="331" y="468"/>
      <point x="331" y="481" type="curve" smooth="yes"/>
      <point x="331" y="484"/>
      <point x="331" y="487"/>
      <point x="332" y="490" type="curve" smooth="yes"/>
      <point x="423" y="1157" type="line" smooth="yes"/>
      <point x="424" y="1163"/>
      <point x="426" y="1166"/>
      <point x="428" y="1166" type="curve" smooth="yes"/>
      <point x="430" y="1166"/>
      <point x="431" y="1163"/>
      <point x="432" y="1156" type="curve" smooth="yes"/>
      <point x="510" y="491" type="line" smooth="yes"/>
      <point x="511" y="488"/>
      <point x="511" y="484"/>
      <point x="511" y="481" type="curve" smooth="yes"/>
      <point x="511" y="468"/>
      <point x="508" y="456"/>
      <point x="502" y="456" type="curve" smooth="yes"/>
    </contour>
    <contour>
      <point x="433" y="1438" type="move" name="top"/>
    </contour>
    <contour>
      <point x="779" y="10" type="move" name="ogonek"/>
    </contour>
  </outline>
</glyph>
<glyph name="B" format="1">
  <advance width="922"/>
  <unicode hex="0042"/>
  <outline>
    <contour>
      <point x="149" y="0" type="curve" smooth="yes"/>
      <point x="537" y="0" type="line" smooth="yes"/>
      <point x="709" y="0"/>
      <point x="854" y="96"/>
      <point x="854" y="424" type="curve" smooth="yes"/>
      <point x="854" y="590"/>
      <point x="826" y="695"/>
      <point x="751" y="757" type="curve" smooth="yes"/>
      <point x="746" y="761"/>
      <point x="739" y="766"/>
      <point x="739" y="772" type="curve" smooth="yes"/>
      <point x="739" y="777"/>
      <point x="746" y="783"/>
      <point x="750" y="788" type="curve" smooth="yes"/>
      <point x="801" y="843"/>
      <point x="820" y="929"/>
      <point x="820" y="1040" type="curve" smooth="yes"/>
      <point x="820" y="1339"/>
      <point x="699" y="1438"/>
      <point x="553" y="1438" type="curve" smooth="yes"/>
      <point x="149" y="1438" type="line" smooth="yes"/>
      <point x="134" y="1438"/>
      <point x="122" y="1433"/>
      <point x="122" y="1390" type="curve" smooth="yes"/>
      <point x="122" y="48" type="line" smooth="yes"/>
      <point x="122" y="5"/>
      <point x="134" y="0"/>
    </contour>
    <contour>
      <point x="397" y="199" type="line" smooth="yes"/>
      <point x="390" y="199"/>
      <point x="384" y="201"/>
      <point x="384" y="221" type="curve" smooth="yes"/>
      <point x="384" y="629" type="line" smooth="yes"/>
      <point x="384" y="649"/>
      <point x="390" y="656"/>
      <point x="397" y="656" type="curve" smooth="yes"/>
      <point x="490" y="656" type="line" smooth="yes"/>
      <point x="562" y="656"/>
      <point x="602" y="551"/>
      <point x="602" y="430" type="curve" smooth="yes"/>
      <point x="602" y="295"/>
      <point x="536" y="199"/>
      <point x="473" y="199" type="curve" smooth="yes"/>
    </contour>
    <contour>
      <point x="397" y="853" type="line" smooth="yes"/>
      <point x="390" y="853"/>
      <point x="384" y="856"/>
      <point x="384" y="876" type="curve" smooth="yes"/>
      <point x="384" y="1207" type="line" smooth="yes"/>
      <point x="384" y="1227"/>
      <point x="390" y="1230"/>
      <point x="397" y="1230" type="curve" smooth="yes"/>
      <point x="469" y="1230" type="line" smooth="yes"/>
      <point x="525" y="1230"/>
      <point x="585" y="1164"/>
      <point x="585" y="1029" type="curve" smooth="yes"/>
      <point x="585" y="929"/>
      <point x="551" y="853"/>
      <point x="496" y="853" type="curve" smooth="yes"/>
    </contour>
  </outline>
</glyph>
<glyph name="I" format="1">
  <advance width="506"/>
  <unicode hex="0049"/>
  <outline>
    <contour>
      <point x="149" y="0" type="curve" smooth="yes"/>
      <point x="358" y="0" type="line" smooth="yes"/>
      <point x="372" y="0"/>
      <point x="384" y="4"/>
      <point x="384" y="47" type="curve" smooth="yes"/>
      <point x="384" y="1391" type="line" smooth="yes"/>
      <point x="384" y="1434"/>
      <point x="372" y="1438"/>
      <point x="358" y="1438" type="curve" smooth="yes"/>
      <point x="149" y="1438" type="line" smooth="yes"/>
      <point x="134" y="1438"/>
      <point x="122" y="1434"/>
      <point x="122" y="1391" type="curve" smooth="yes"/>
      <point x="122" y="47" type="line" smooth="yes"/>
      <point x="122" y="4"/>
      <point x="134" y="0"/>
    </contour>
    <contour>
      <point x="253" y="1438" type="move" name="top"/>
    </contour>
    <contour>
      <point x="455" y="10" type="move" name="ogonek"/>
    </contour>
  </outline>
</glyph>
<glyph name="K" format="1">
  <advance width="894"/>
  <unicode hex="004B"/>
  <outline>
    <contour>
      <point x="149" y="0" type="curve" smooth="yes"/>
      <point x="358" y="0" type="line" smooth="yes"/>
      <point x="372" y="0"/>
      <point x="384" y="4"/>
      <point x="384" y="47" type="curve" smooth="yes"/>
      <point x="384" y="655" type="line"/>
      <point x="590" y="47" type="line"/>
      <point x="599" y="9"/>
      <point x="615" y="0"/>
      <point x="632" y="0" type="curve" smooth="yes"/>
      <point x="839" y="0" type="line" smooth="yes"/>
      <point x="849.999860675" y="0.0"/>
      <point x="861.000734065" y="19.9996951932"/>
      <point x="854" y="46" type="curve" smooth="yes"/>
      <point x="655" y="694" type="line" smooth="yes"/>
      <point x="651" y="708"/>
      <point x="650" y="720"/>
      <point x="650" y="731" type="curve" smooth="yes"/>
      <point x="650" y="756"/>
      <point x="657" y="772"/>
      <point x="660" y="782" type="curve" smooth="yes"/>
      <point x="846" y="1390" type="line" smooth="yes"/>
      <point x="851.998646104" y="1414.00896104"/>
      <point x="849.999838548" y="1438.0"/>
      <point x="820" y="1438" type="curve" smooth="yes"/>
      <point x="622" y="1438" type="line" smooth="yes"/>
      <point x="606" y="1438"/>
      <point x="589" y="1427"/>
      <point x="579" y="1393" type="curve" smooth="yes"/>
      <point x="384" y="711" type="line"/>
      <point x="384" y="1391" type="line" smooth="yes"/>
      <point x="384" y="1434"/>
      <point x="372" y="1438"/>
      <point x="358" y="1438" type="curve" smooth="yes"/>
      <point x="149" y="1438" type="line" smooth="yes"/>
      <point x="134" y="1438"/>
      <point x="122" y="1434"/>
      <point x="122" y="1391" type="curve" smooth="yes"/>
      <point x="122" y="47" type="line" smooth="yes"/>
      <point x="122" y="4"/>
      <point x="134" y="0"/>
    </contour>
    <contour>
      <point x="447" y="1438" type="move" name="top"/>
    </contour>
    <contour>
      <point x="447" y="0" type="move" name="bottom"/>
    </contour>
  </outline>
</glyph>
<glyph name="M" format="1">
  <advance width="1124"/>
  <unicode hex="004D"/>
  <outline>
    <contour>
      <point x="119" y="0" type="curve" smooth="yes"/>
      <point x="278" y="0" type="line" smooth="yes"/>
      <point x="293" y="0"/>
      <point x="304" y="4"/>
      <point x="304" y="47" type="curve"/>
      <point x="334" y="898" type="line" smooth="yes"/>
      <point x="334" y="908"/>
      <point x="338" y="912"/>
      <point x="340" y="903" type="curve" smooth="yes"/>
      <point x="485" y="37" type="line"/>
      <point x="492.531" y="2.69388"/>
      <point x="504.962" y="-0.106622"/>
      <point x="517.608" y="-0.106622" type="curve" smooth="yes"/>
      <point x="520.075" y="-0.106622"/>
      <point x="598.498" y="-0.106622"/>
      <point x="601.145" y="-0.106622" type="curve" smooth="yes"/>
      <point x="614.711" y="-0.106622"/>
      <point x="626.306" y="2.69388"/>
      <point x="633" y="37" type="curve" smooth="yes"/>
      <point x="784" y="903" type="line" smooth="yes"/>
      <point x="786" y="912"/>
      <point x="791" y="908"/>
      <point x="791" y="898" type="curve" smooth="yes"/>
      <point x="821" y="47" type="line"/>
      <point x="821" y="4"/>
      <point x="832" y="0"/>
      <point x="847" y="0" type="curve" smooth="yes"/>
      <point x="1004" y="0" type="line" smooth="yes"/>
      <point x="1020" y="0"/>
      <point x="1031" y="4"/>
      <point x="1031" y="47" type="curve"/>
      <point x="981" y="1387" type="line"/>
      <point x="981" y="1430"/>
      <point x="969" y="1438"/>
      <point x="955" y="1438" type="curve" smooth="yes"/>
      <point x="741" y="1438" type="line" smooth="yes"/>
      <point x="725" y="1438"/>
      <point x="709" y="1437"/>
      <point x="702" y="1397" type="curve"/>
      <point x="568" y="772" type="line" smooth="yes"/>
      <point x="566" y="758"/>
      <point x="559" y="758"/>
      <point x="556" y="772" type="curve" smooth="yes"/>
      <point x="426" y="1397" type="line" smooth="yes"/>
      <point x="418" y="1437"/>
      <point x="403" y="1438"/>
      <point x="387" y="1438" type="curve" smooth="yes"/>
      <point x="168" y="1438" type="line" smooth="yes"/>
      <point x="153" y="1438"/>
      <point x="142" y="1430"/>
      <point x="142" y="1387" type="curve"/>
      <point x="93" y="47" type="line"/>
      <point x="93" y="4"/>
      <point x="105" y="0"/>
    </contour>
  </outline>
</glyph>
<glyph name="O" format="1">
  <advance width="966"/>
  <unicode hex="004F"/>
  <outline>
    <contour>
      <point x="482" y="193" type="curve" smooth="yes"/>
      <point x="376" y="193"/>
      <point x="348" y="304"/>
      <point x="348" y="727" type="curve" smooth="yes"/>
      <point x="348" y="1150"/>
      <point x="374" y="1240"/>
      <point x="484" y="1240" type="curve" smooth="yes"/>
      <point x="595" y="1240"/>
      <point x="618" y="1150"/>
      <point x="618" y="727" type="curve" smooth="yes"/>
      <point x="618" y="304"/>
      <point x="589" y="193"/>
    </contour>
    <contour>
      <point x="483" y="-16" type="curve" smooth="yes"/>
      <point x="755" y="-16"/>
      <point x="880" y="98"/>
      <point x="880" y="727" type="curve" smooth="yes"/>
      <point x="880" y="1349"/>
      <point x="745" y="1456"/>
      <point x="483" y="1456" type="curve" smooth="yes"/>
      <point x="222" y="1456"/>
      <point x="86" y="1349"/>
      <point x="86" y="727" type="curve" smooth="yes"/>
      <point x="86" y="98"/>
      <point x="212" y="-16"/>
    </contour>
    <contour>
      <point x="483" y="1438" type="move" name="top"/>
    </contour>
  </outline>
</glyph>
<glyph name="S" format="1">
  <advance width="803"/>
  <unicode hex="0053"/>
  <outline>
    <contour>
      <point x="391" y="-16" type="curve" smooth="yes"/>
      <point x="620" y="-16"/>
      <point x="756.525" y="165.743"/>
      <point x="756.525" y="417.846" type="curve" smooth="yes"/>
      <point x="756.525" y="608.251"/>
      <point x="664.193" y="735.436"/>
      <point x="554.161" y="803" type="curve"/>
      <point x="434.161" y="878" type="line" smooth="yes"/>
      <point x="352.161" y="929"/>
      <point x="302.161" y="983"/>
      <point x="302.161" y="1071" type="curve" smooth="yes"/>
      <point x="302.161" y="1152"/>
      <point x="354" y="1229"/>
      <point x="427" y="1229" type="curve" smooth="yes"/>
      <point x="501" y="1229"/>
      <point x="575.161" y="1194"/>
      <point x="636.161" y="1122" type="curve" smooth="yes"/>
      <point x="661.164998908" y="1089.03584714"/>
      <point x="782.166874525" y="1244.00100429"/>
      <point x="734.161" y="1309" type="curve" smooth="yes"/>
      <point x="642.161" y="1430"/>
      <point x="522" y="1456"/>
      <point x="414" y="1456" type="curve" smooth="yes"/>
      <point x="210" y="1456"/>
      <point x="79.1937" y="1269.13"/>
      <point x="79.1937" y="1022.18" type="curve" smooth="yes"/>
      <point x="79.1937" y="836.9"/>
      <point x="160.181" y="733.339"/>
      <point x="272.161" y="659" type="curve" smooth="yes"/>
      <point x="393.161" y="579" type="line" smooth="yes"/>
      <point x="475.161" y="525"/>
      <point x="526.161" y="467"/>
      <point x="526.161" y="377" type="curve" smooth="yes"/>
      <point x="526.161" y="292"/>
      <point x="482" y="214"/>
      <point x="394" y="214" type="curve" smooth="yes"/>
      <point x="316" y="214"/>
      <point x="231.161" y="273"/>
      <point x="162.161" y="348" type="curve" smooth="yes"/>
      <point x="111.159576163" y="400.002739207"/>
      <point x="9.16058401743" y="216.000865127"/>
      <point x="44.161" y="167" type="curve" smooth="yes"/>
      <point x="140.161" y="31"/>
      <point x="269" y="-16"/>
    </contour>
    <contour>
      <point x="402" y="1438" type="move" name="top"/>
    </contour>
    <contour>
      <point x="402" y="0" type="move" name="bottom"/>
    </contour>
  </outline>
</glyph>
<glyph name="V" format="1">
  <advance width="845"/>
  <unicode hex="0056"/>
  <outline>
    <contour>
      <point x="322.514" y="0" type="curve" smooth="yes"/>
      <point x="528.514" y="0" type="line" smooth="yes"/>
      <point x="545.514" y="0"/>
      <point x="560.514" y="27"/>
      <point x="567.514" y="67" type="curve" smooth="yes"/>
      <point x="809.514" y="1371" type="line" smooth="yes"/>
      <point x="814.51487373" y="1400.98728592"/>
      <point x="807.512884359" y="1438.0"/>
      <point x="795.514" y="1438" type="curve" smooth="yes"/>
      <point x="627" y="1438" type="line" smooth="yes"/>
      <point x="610" y="1438"/>
      <point x="594" y="1411"/>
      <point x="587" y="1371" type="curve" smooth="yes"/>
      <point x="447" y="573" type="line"/>
      <point x="296.514" y="1371" type="line" smooth="yes"/>
      <point x="289" y="1411"/>
      <point x="274.514" y="1438"/>
      <point x="257.514" y="1438" type="curve" smooth="yes"/>
      <point x="50.5137" y="1438" type="line" smooth="yes"/>
      <point x="38.5157683205" y="1438.0"/>
      <point x="30.5105601246" y="1400.99565421"/>
      <point x="35.5137" y="1371" type="curve" smooth="yes"/>
      <point x="283.514" y="67" type="line" smooth="yes"/>
      <point x="290.514" y="27"/>
      <point x="305.514" y="0"/>
    </contour>
  </outline>
</glyph>
<glyph name="W" format="1">
  <advance width="1112"/>
  <unicode hex="0057"/>
  <outline>
    <contour>
      <point x="259.489" y="0" type="curve" smooth="yes"/>
      <point x="410.993" y="0" type="line"/>
      <point x="424.993" y="3"/>
      <point x="440.993" y="31"/>
      <point x="444.993" y="70" type="curve"/>
      <point x="548.993" y="830" type="line"/>
      <point x="652.993" y="71" type="line" smooth="yes"/>
      <point x="657.993" y="29"/>
      <point x="672.993" y="0"/>
      <point x="687.993" y="0" type="curve" smooth="yes"/>
      <point x="854.489" y="0" type="line" smooth="yes"/>
      <point x="870.489" y="0"/>
      <point x="884.489" y="28"/>
      <point x="890.489" y="70" type="curve" smooth="yes"/>
      <point x="1066.5" y="1368" type="line" smooth="yes"/>
      <point x="1072.47243394" y="1400.96236439"/>
      <point x="1063.50268073" y="1438.0"/>
      <point x="1051.5" y="1438" type="curve" smooth="yes"/>
      <point x="895.496" y="1438" type="line" smooth="yes"/>
      <point x="879.496" y="1438"/>
      <point x="865.496" y="1410"/>
      <point x="859.496" y="1368" type="curve" smooth="yes"/>
      <point x="770.489" y="668" type="line"/>
      <point x="674.496" y="1367" type="line" smooth="yes"/>
      <point x="668.496" y="1407"/>
      <point x="655.496" y="1435"/>
      <point x="640.496" y="1438" type="curve"/>
      <point x="501.496" y="1438" type="line" smooth="yes"/>
      <point x="485.496" y="1438"/>
      <point x="470.496" y="1410"/>
      <point x="464.496" y="1368" type="curve" smooth="yes"/>
      <point x="366.489" y="680" type="line"/>
      <point x="284.496" y="1366" type="line" smooth="yes"/>
      <point x="279.496" y="1409"/>
      <point x="265.496" y="1438"/>
      <point x="249.496" y="1438" type="curve" smooth="yes"/>
      <point x="66.4964" y="1438" type="line" smooth="yes"/>
      <point x="52.4961910408" y="1438.0"/>
      <point x="44.4969379104" y="1400.97914925"/>
      <point x="49.4964" y="1368" type="curve" smooth="yes"/>
      <point x="222.489" y="70" type="line" smooth="yes"/>
      <point x="228.489" y="28"/>
      <point x="244.489" y="0"/>
    </contour>
    <contour>
      <point x="556" y="1438" type="move" name="top"/>
    </contour>
  </outline>
</glyph>
<glyph name="backslash" format="1">
  <advance width="622"/>
  <unicode hex="005C"/>
  <outline>
    <contour>
      <point x="338" y="-207" type="curve" smooth="yes"/>
      <point x="522" y="-205" type="line" smooth="yes"/>
      <point x="526.999902091" y="-205.0"/>
      <point x="530.997958237" y="-186.999294664"/>
      <point x="529" y="-170" type="curve" smooth="yes"/>
      <point x="294" y="1612" type="line" smooth="yes"/>
      <point x="292" y="1633"/>
      <point x="285" y="1647"/>
      <point x="278" y="1647" type="curve" smooth="yes"/>
      <point x="95" y="1647" type="line" smooth="yes"/>
      <point x="88.9993366207" y="1647.0"/>
      <point x="85.0012148148" y="1628.98572391"/>
      <point x="87" y="1612" type="curve" smooth="yes"/>
      <point x="322" y="-172" type="line" smooth="yes"/>
      <point x="325" y="-193"/>
      <point x="331" y="-207"/>
    </contour>
  </outline>
</glyph>
<glyph name="a" format="1">
  <advance width="766"/>
  <unicode hex="0061"/>
  <outline>
    <contour>
      <point x="293" y="-12" type="curve" smooth="yes"/>
      <point x="418" y="-12"/>
      <point x="471" y="48"/>
      <point x="510" y="149" type="curve" smooth="yes"/>
      <point x="511" y="153"/>
      <point x="515" y="155"/>
      <point x="518" y="149" type="curve" smooth="yes"/>
      <point x="523" y="139"/>
      <point x="564.521" y="60.0882"/>
      <point x="570" y="46" type="curve" smooth="yes"/>
      <point x="582" y="13"/>
      <point x="595" y="0"/>
      <point x="608" y="0" type="curve" smooth="yes"/>
      <point x="654" y="0" type="line" smooth="yes"/>
      <point x="667" y="0"/>
      <point x="676" y="18"/>
      <point x="676" y="53" type="curve" smooth="yes"/>
      <point x="676" y="578" type="line" smooth="yes"/>
      <point x="676" y="927"/>
      <point x="556" y="1017"/>
      <point x="396" y="1017" type="curve" smooth="yes"/>
      <point x="230" y="1017"/>
      <point x="143" y="948"/>
      <point x="111" y="816" type="curve" smooth="yes"/>
      <point x="104.000844773" y="786.998386308"/>
      <point x="106.999915895" y="747.000586317"/>
      <point x="118" y="745" type="curve" smooth="yes"/>
      <point x="118" y="745"/>
      <point x="261" y="706"/>
      <point x="263" y="706" type="curve" smooth="yes"/>
      <point x="270" y="706"/>
      <point x="277" y="710"/>
      <point x="282" y="730" type="curve" smooth="yes"/>
      <point x="300" y="804"/>
      <point x="330" y="842"/>
      <point x="378" y="842" type="curve" smooth="yes"/>
      <point x="443" y="842"/>
      <point x="468" y="787"/>
      <point x="468" y="668" type="curve" smooth="yes"/>
      <point x="468" y="619" type="line" smooth="yes"/>
      <point x="468" y="574"/>
      <point x="81" y="646"/>
      <point x="81" y="238" type="curve" smooth="yes"/>
      <point x="81" y="62"/>
      <point x="171" y="-12"/>
    </contour>
    <contour>
      <point x="343" y="151" type="curve" smooth="yes"/>
      <point x="299" y="151"/>
      <point x="275" y="190"/>
      <point x="275" y="251" type="curve" smooth="yes"/>
      <point x="275" y="382"/>
      <point x="352" y="440"/>
      <point x="455" y="476" type="curve" smooth="yes"/>
      <point x="457" y="477"/>
      <point x="462" y="478"/>
      <point x="463" y="478" type="curve" smooth="yes"/>
      <point x="473" y="478"/>
      <point x="473" y="407"/>
      <point x="473" y="393" type="curve" smooth="yes"/>
      <point x="473" y="278"/>
      <point x="416" y="151"/>
    </contour>
    <contour>
      <point x="383" y="1006" type="move" name="top"/>
    </contour>
    <contour>
      <point x="689" y="10" type="move" name="ogonek"/>
    </contour>
  </outline>
</glyph>
<glyph name="d" format="1">
  <advance width="844"/>
  <unicode hex="0064"/>
  <outline>
    <contour>
      <point x="354" y="-10" type="curve" smooth="yes"/>
      <point x="443" y="-10"/>
      <point x="542" y="11"/>
      <point x="579" y="200" type="curve"/>
      <point x="582" y="207"/>
      <point x="584" y="210"/>
      <point x="587" y="210" type="curve" smooth="yes"/>
      <point x="590" y="210"/>
      <point x="593" y="206"/>
      <point x="594" y="197" type="curve"/>
      <point x="625" y="64" type="line"/>
      <point x="633" y="25"/>
      <point x="649" y="0"/>
      <point x="666" y="0" type="curve" smooth="yes"/>
      <point x="709" y="0" type="line" smooth="yes"/>
      <point x="724" y="0"/>
      <point x="736" y="24"/>
      <point x="736" y="67" type="curve" smooth="yes"/>
      <point x="736" y="1366" type="line" smooth="yes"/>
      <point x="736" y="1409"/>
      <point x="724" y="1423"/>
      <point x="709" y="1423" type="curve" smooth="yes"/>
      <point x="536" y="1423" type="line" smooth="yes"/>
      <point x="521" y="1423"/>
      <point x="510" y="1409"/>
      <point x="510" y="1366" type="curve" smooth="yes"/>
      <point x="510" y="911" type="line" smooth="yes"/>
      <point x="510" y="901"/>
      <point x="507" y="897"/>
      <point x="504" y="897" type="curve" smooth="yes"/>
      <point x="501" y="897"/>
      <point x="497" y="901"/>
      <point x="494" y="906" type="curve" smooth="yes"/>
      <point x="459" y="987"/>
      <point x="411" y="1017"/>
      <point x="341" y="1017" type="curve" smooth="yes"/>
      <point x="223" y="1017"/>
      <point x="80" y="915"/>
      <point x="80" y="498" type="curve" smooth="yes"/>
      <point x="80" y="83"/>
      <point x="226" y="-10"/>
    </contour>
    <contour>
      <point x="410" y="165" type="curve" smooth="yes"/>
      <point x="345" y="165"/>
      <point x="306" y="210"/>
      <point x="306" y="514" type="curve" smooth="yes"/>
      <point x="306" y="779"/>
      <point x="345" y="842"/>
      <point x="409" y="842" type="curve" smooth="yes"/>
      <point x="476" y="842"/>
      <point x="509" y="762"/>
      <point x="509" y="514" type="curve" smooth="yes"/>
      <point x="509" y="236"/>
      <point x="476" y="165"/>
    </contour>
    <contour>
      <point x="422" y="503" type="move" name="center"/>
    </contour>
  </outline>
</glyph>
<glyph name="f" format="1">
  <advance width="524"/>
  <unicode hex="0066"/>
  <outline>
    <contour>
      <point x="150" y="0" type="curve" smooth="yes"/>
      <point x="315" y="0" type="line" smooth="yes"/>
      <point x="329" y="0"/>
      <point x="341" y="9"/>
      <point x="341" y="52" type="curve" smooth="yes"/>
      <point x="341" y="777" type="line" smooth="yes"/>
      <point x="341" y="797"/>
      <point x="343" y="814"/>
      <point x="349" y="814" type="curve" smooth="yes"/>
      <point x="484" y="814" type="line" smooth="yes"/>
      <point x="499" y="814"/>
      <point x="507" y="823"/>
      <point x="507" y="866" type="curve" smooth="yes"/>
      <point x="507" y="951" type="line" smooth="yes"/>
      <point x="507" y="994"/>
      <point x="499" y="1006"/>
      <point x="484" y="1006" type="curve" smooth="yes"/>
      <point x="343" y="1006" type="line"/>
      <point x="343" y="1006"/>
      <point x="341" y="1009"/>
      <point x="341" y="1012" type="curve" smooth="yes"/>
      <point x="341" y="1106" type="line" smooth="yes"/>
      <point x="341" y="1233"/>
      <point x="377" y="1279"/>
      <point x="430" y="1279" type="curve" smooth="yes"/>
      <point x="501" y="1279" type="line" smooth="yes"/>
      <point x="513" y="1279"/>
      <point x="514" y="1293"/>
      <point x="514" y="1330" type="curve" smooth="yes"/>
      <point x="514" y="1423" type="line" smooth="yes"/>
      <point x="514" y="1451"/>
      <point x="500" y="1462"/>
      <point x="488" y="1465" type="curve" smooth="yes"/>
      <point x="467" y="1470"/>
      <point x="409" y="1475"/>
      <point x="363" y="1475" type="curve" smooth="yes"/>
      <point x="239" y="1475"/>
      <point x="124" y="1414"/>
      <point x="124" y="1044" type="curve" smooth="yes"/>
      <point x="124" y="1022"/>
      <point x="124" y="1006"/>
      <point x="117" y="1006" type="curve" smooth="yes"/>
      <point x="65" y="1006" type="line" smooth="yes"/>
      <point x="50" y="1006"/>
      <point x="42" y="988"/>
      <point x="42" y="945" type="curve" smooth="yes"/>
      <point x="42" y="866" type="line" smooth="yes"/>
      <point x="42" y="823"/>
      <point x="50" y="814"/>
      <point x="65" y="814" type="curve" smooth="yes"/>
      <point x="117" y="814" type="line" smooth="yes"/>
      <point x="124" y="814"/>
      <point x="124" y="797"/>
      <point x="124" y="777" type="curve" smooth="yes"/>
      <point x="124" y="52" type="line" smooth="yes"/>
      <point x="124" y="9"/>
      <point x="136" y="0"/>
    </contour>
  </outline>
</glyph>
<glyph name="g" format="1">
  <advance width="783"/>
  <unicode hex="0067"/>
  <outline>
    <contour>
      <point x="372" y="-319" type="curve" smooth="yes"/>
      <point x="502" y="-319"/>
      <point x="777" y="-281"/>
      <point x="777" y="-25" type="curve" smooth="yes"/>
      <point x="777" y="145"/>
      <point x="676" y="199"/>
      <point x="451" y="199" type="curve" smooth="yes"/>
      <point x="353" y="199" type="line" smooth="yes"/>
      <point x="287" y="199"/>
      <point x="247" y="220"/>
      <point x="247" y="284" type="curve" smooth="yes"/>
      <point x="247" y="330"/>
      <point x="272" y="381"/>
      <point x="279" y="381" type="curve"/>
      <point x="310" y="362"/>
      <point x="371" y="343"/>
      <point x="414" y="343" type="curve" smooth="yes"/>
      <point x="609" y="343"/>
      <point x="732" y="461"/>
      <point x="732" y="674" type="curve" smooth="yes"/>
      <point x="732" y="858"/>
      <point x="635" y="920"/>
      <point x="586" y="953" type="curve" smooth="yes"/>
      <point x="568.567" y="964.622"/>
      <point x="559.59" y="968.086"/>
      <point x="566" y="998" type="curve" smooth="yes"/>
      <point x="632" y="1287" type="line" smooth="yes"/>
      <point x="634" y="1295"/>
      <point x="629" y="1332"/>
      <point x="621" y="1332" type="curve" smooth="yes"/>
      <point x="514" y="1332" type="line" smooth="yes"/>
      <point x="499" y="1332"/>
      <point x="483" y="1330"/>
      <point x="483" y="1287" type="curve" smooth="yes"/>
      <point x="483" y="1019" type="line" smooth="yes"/>
      <point x="483" y="1004"/>
      <point x="476" y="1004"/>
      <point x="461" y="1007" type="curve" smooth="yes"/>
      <point x="445" y="1010"/>
      <point x="421" y="1017"/>
      <point x="386" y="1017" type="curve" smooth="yes"/>
      <point x="174" y="1017"/>
      <point x="60" y="875"/>
      <point x="60" y="672" type="curve" smooth="yes"/>
      <point x="60" y="559"/>
      <point x="122" y="471"/>
      <point x="148" y="450" type="curve"/>
      <point x="153" y="444"/>
      <point x="156" y="437"/>
      <point x="156" y="430" type="curve" smooth="yes"/>
      <point x="156" y="424"/>
      <point x="153" y="417"/>
      <point x="147" y="409" type="curve" smooth="yes"/>
      <point x="110" y="363"/>
      <point x="65" y="312"/>
      <point x="65" y="208" type="curve" smooth="yes"/>
      <point x="65" y="110"/>
      <point x="122" y="117"/>
      <point x="185" y="95" type="curve"/>
      <point x="189" y="92"/>
      <point x="189" y="85"/>
      <point x="189" y="78" type="curve" smooth="yes"/>
      <point x="189" y="73"/>
      <point x="189" y="67"/>
      <point x="186" y="63" type="curve" smooth="yes"/>
      <point x="125" y="-20"/>
      <point x="93" y="-78"/>
      <point x="93" y="-152" type="curve" smooth="yes"/>
      <point x="93" y="-264"/>
      <point x="206" y="-319"/>
    </contour>
    <contour>
      <point x="400" y="-189" type="curve" smooth="yes"/>
      <point x="310" y="-189"/>
      <point x="292" y="-143"/>
      <point x="292" y="-101" type="curve" smooth="yes"/>
      <point x="292" y="-31"/>
      <point x="341.933" y="72"/>
      <point x="349" y="72" type="curve" smooth="yes"/>
      <point x="462" y="72" type="line" smooth="yes"/>
      <point x="526" y="72"/>
      <point x="593" y="49"/>
      <point x="593" y="-44" type="curve" smooth="yes"/>
      <point x="593" y="-132"/>
      <point x="520" y="-189"/>
    </contour>
    <contour>
      <point x="407" y="481" type="curve" smooth="yes"/>
      <point x="356" y="481"/>
      <point x="285" y="536"/>
      <point x="285" y="682" type="curve" smooth="yes"/>
      <point x="285" y="829"/>
      <point x="355" y="881"/>
      <point x="407" y="881" type="curve" smooth="yes"/>
      <point x="457" y="881"/>
      <point x="527" y="816"/>
      <point x="527" y="670" type="curve" smooth="yes"/>
      <point x="527" y="543"/>
      <point x="460" y="481"/>
    </contour>
    <contour>
      <point x="392" y="1006" type="move" name="top"/>
    </contour>
  </outline>
</glyph>
<glyph name="j" format="1">
  <advance width="451"/>
  <unicode hex="006A"/>
  <outline>
    <contour>
      <point x="31" y="-358" type="curve" smooth="yes"/>
      <point x="139" y="-358" type="line" smooth="yes"/>
      <point x="242" y="-358"/>
      <point x="356" y="-333"/>
      <point x="356" y="-8" type="curve" smooth="yes"/>
      <point x="356" y="929" type="line" smooth="yes"/>
      <point x="356" y="972"/>
      <point x="345" y="1006"/>
      <point x="330" y="1006" type="curve" smooth="yes"/>
      <point x="175" y="1006" type="line" smooth="yes"/>
      <point x="160" y="1006"/>
      <point x="149" y="972"/>
      <point x="149" y="929" type="curve" smooth="yes"/>
      <point x="149" y="-20" type="line" smooth="yes"/>
      <point x="149" y="-132"/>
      <point x="108" y="-140"/>
      <point x="70" y="-140" type="curve" smooth="yes"/>
      <point x="30" y="-140" type="line" smooth="yes"/>
      <point x="15" y="-140"/>
      <point x="4" y="-166"/>
      <point x="4" y="-207" type="curve" smooth="yes"/>
      <point x="4" y="-283" type="line" smooth="yes"/>
      <point x="4" y="-327"/>
      <point x="16" y="-358"/>
    </contour>
    <contour>
      <point x="175" y="1152" type="curve" smooth="yes"/>
      <point x="330" y="1152" type="line" smooth="yes"/>
      <point x="344" y="1152"/>
      <point x="356" y="1166"/>
      <point x="356" y="1209" type="curve" smooth="yes"/>
      <point x="356" y="1381" type="line" smooth="yes"/>
      <point x="356" y="1424"/>
      <point x="344" y="1438"/>
      <point x="330" y="1438" type="curve" smooth="yes"/>
      <point x="175" y="1438" type="line" smooth="yes"/>
      <point x="160" y="1438"/>
      <point x="148" y="1424"/>
      <point x="148" y="1381" type="curve" smooth="yes"/>
      <point x="148" y="1209" type="line" smooth="yes"/>
      <point x="148" y="1166"/>
      <point x="160" y="1152"/>
    </contour>
  </outline>
</glyph>
<glyph name="k" format="1">
  <advance width="746"/>
  <unicode hex="006B"/>
  <outline>
    <contour>
      <point x="136" y="0" type="curve" smooth="yes"/>
      <point x="291" y="0" type="line" smooth="yes"/>
      <point x="305" y="0"/>
      <point x="317" y="14"/>
      <point x="317" y="57" type="curve" smooth="yes"/>
      <point x="317" y="277" type="line" smooth="yes"/>
      <point x="317" y="300"/>
      <point x="320" y="323"/>
      <point x="326" y="338" type="curve" smooth="yes"/>
      <point x="354" y="416" type="line"/>
      <point x="355" y="422"/>
      <point x="359" y="425"/>
      <point x="362" y="425" type="curve" smooth="yes"/>
      <point x="366" y="425"/>
      <point x="368" y="421"/>
      <point x="371" y="413" type="curve" smooth="yes"/>
      <point x="475" y="37" type="line"/>
      <point x="486" y="2"/>
      <point x="494" y="0"/>
      <point x="509" y="0" type="curve" smooth="yes"/>
      <point x="704" y="0" type="line" smooth="yes"/>
      <point x="710" y="0"/>
      <point x="715" y="16"/>
      <point x="715" y="32" type="curve" smooth="yes"/>
      <point x="715" y="40"/>
      <point x="713" y="48"/>
      <point x="711" y="54" type="curve" smooth="yes"/>
      <point x="535" y="541" type="line" smooth="yes"/>
      <point x="532" y="547"/>
      <point x="532" y="555"/>
      <point x="532" y="563" type="curve" smooth="yes"/>
      <point x="532" y="573"/>
      <point x="533" y="583"/>
      <point x="536" y="589" type="curve" smooth="yes"/>
      <point x="694" y="961" type="line" smooth="yes"/>
      <point x="697" y="966"/>
      <point x="698" y="973"/>
      <point x="698" y="981" type="curve" smooth="yes"/>
      <point x="698" y="994"/>
      <point x="695" y="1006"/>
      <point x="690" y="1006" type="curve" smooth="yes"/>
      <point x="495" y="1006" type="line" smooth="yes"/>
      <point x="479" y="1006"/>
      <point x="462" y="988"/>
      <point x="451" y="960" type="curve" smooth="yes"/>
      <point x="327" y="660" type="line" smooth="yes"/>
      <point x="326" y="658"/>
      <point x="324" y="656"/>
      <point x="324" y="656" type="curve"/>
      <point x="320" y="656"/>
      <point x="317" y="664"/>
      <point x="317" y="675" type="curve" smooth="yes"/>
      <point x="317" y="1418" type="line" smooth="yes"/>
      <point x="317" y="1461"/>
      <point x="305" y="1475"/>
      <point x="291" y="1475" type="curve" smooth="yes"/>
      <point x="136" y="1475" type="line" smooth="yes"/>
      <point x="121" y="1475"/>
      <point x="109" y="1461"/>
      <point x="109" y="1418" type="curve" smooth="yes"/>
      <point x="109" y="57" type="line" smooth="yes"/>
      <point x="109" y="14"/>
      <point x="121" y="0"/>
    </contour>
    <contour>
      <point x="373" y="0" type="move" name="bottom"/>
    </contour>
  </outline>
</glyph>
<glyph name="m" format="1">
  <advance width="1151"/>
  <unicode hex="006D"/>
  <outline>
    <contour>
      <point x="135" y="0" type="curve" smooth="yes"/>
      <point x="297" y="0" type="line" smooth="yes"/>
      <point x="311" y="0"/>
      <point x="323" y="34"/>
      <point x="323" y="77" type="curve" smooth="yes"/>
      <point x="323" y="552" type="line" smooth="yes"/>
      <point x="323" y="738"/>
      <point x="332" y="842"/>
      <point x="403" y="842" type="curve" smooth="yes"/>
      <point x="452" y="842"/>
      <point x="478" y="795"/>
      <point x="478" y="577" type="curve" smooth="yes"/>
      <point x="478" y="77" type="line" smooth="yes"/>
      <point x="478" y="34"/>
      <point x="489" y="0"/>
      <point x="505" y="0" type="curve" smooth="yes"/>
      <point x="664" y="0" type="line" smooth="yes"/>
      <point x="679" y="0"/>
      <point x="690" y="34"/>
      <point x="690" y="77" type="curve" smooth="yes"/>
      <point x="690" y="569" type="line" smooth="yes"/>
      <point x="690" y="835"/>
      <point x="735" y="842"/>
      <point x="770" y="842" type="curve" smooth="yes"/>
      <point x="825" y="842"/>
      <point x="845" y="799"/>
      <point x="845" y="597" type="curve" smooth="yes"/>
      <point x="845" y="77" type="line" smooth="yes"/>
      <point x="845" y="34"/>
      <point x="856" y="0"/>
      <point x="871" y="0" type="curve" smooth="yes"/>
      <point x="1031" y="0" type="line" smooth="yes"/>
      <point x="1046" y="0"/>
      <point x="1057" y="34"/>
      <point x="1057" y="77" type="curve" smooth="yes"/>
      <point x="1057" y="599" type="line" smooth="yes"/>
      <point x="1057" y="962"/>
      <point x="953" y="1017"/>
      <point x="833" y="1017" type="curve" smooth="yes"/>
      <point x="770" y="1017"/>
      <point x="682" y="963"/>
      <point x="649" y="847" type="curve" smooth="yes"/>
      <point x="647" y="840"/>
      <point x="644" y="837"/>
      <point x="640" y="837" type="curve" smooth="yes"/>
      <point x="637" y="837"/>
      <point x="633" y="840"/>
      <point x="631" y="847" type="curve" smooth="yes"/>
      <point x="595" y="964"/>
      <point x="522" y="1017"/>
      <point x="454" y="1017" type="curve" smooth="yes"/>
      <point x="378" y="1017"/>
      <point x="305" y="982"/>
      <point x="265" y="822" type="curve" smooth="yes"/>
      <point x="263" y="814"/>
      <point x="261" y="811"/>
      <point x="258" y="811" type="curve" smooth="yes"/>
      <point x="255" y="811"/>
      <point x="252" y="815"/>
      <point x="250" y="823" type="curve" smooth="yes"/>
      <point x="226" y="942" type="line"/>
      <point x="217" y="981"/>
      <point x="200" y="1006"/>
      <point x="185" y="1006" type="curve" smooth="yes"/>
      <point x="135" y="1006" type="line" smooth="yes"/>
      <point x="121" y="1006"/>
      <point x="109" y="972"/>
      <point x="109" y="929" type="curve" smooth="yes"/>
      <point x="109" y="77" type="line" smooth="yes"/>
      <point x="109" y="34"/>
      <point x="121" y="0"/>
    </contour>
  </outline>
</glyph>
<glyph name="t" format="1">
  <advance width="579"/>
  <unicode hex="0074"/>
  <outline>
    <contour>
      <point x="402" y="-1" type="curve" smooth="yes"/>
      <point x="516" y="-1" type="line" smooth="yes"/>
      <point x="533" y="-1"/>
      <point x="546" y="8"/>
      <point x="546" y="50" type="curve" smooth="yes"/>
      <point x="546" y="123" type="line" smooth="yes"/>
      <point x="546" y="164"/>
      <point x="536" y="173"/>
      <point x="521" y="173" type="curve" smooth="yes"/>
      <point x="446" y="173" type="line" smooth="yes"/>
      <point x="401" y="173"/>
      <point x="351" y="191"/>
      <point x="351" y="329" type="curve" smooth="yes"/>
      <point x="351" y="789" type="line" smooth="yes"/>
      <point x="351" y="809"/>
      <point x="357" y="811"/>
      <point x="364" y="811" type="curve" smooth="yes"/>
      <point x="491" y="811" type="line" smooth="yes"/>
      <point x="505" y="811"/>
      <point x="517" y="825"/>
      <point x="517" y="868" type="curve" smooth="yes"/>
      <point x="517" y="949" type="line" smooth="yes"/>
      <point x="517" y="992"/>
      <point x="505" y="1006"/>
      <point x="491" y="1006" type="curve" smooth="yes"/>
      <point x="364" y="1006" type="line" smooth="yes"/>
      <point x="357" y="1006"/>
      <point x="351" y="1013"/>
      <point x="351" y="1033" type="curve" smooth="yes"/>
      <point x="351" y="1418" type="line" smooth="yes"/>
      <point x="351" y="1461"/>
      <point x="340" y="1475"/>
      <point x="325" y="1475" type="curve" smooth="yes"/>
      <point x="182" y="1475" type="line" smooth="yes"/>
      <point x="167" y="1475"/>
      <point x="156" y="1461"/>
      <point x="154" y="1418" type="curve" smooth="yes"/>
      <point x="133" y="1033" type="line"/>
      <point x="133" y="1013"/>
      <point x="128" y="1006"/>
      <point x="121" y="1006" type="curve" smooth="yes"/>
      <point x="63" y="1006" type="line" smooth="yes"/>
      <point x="49" y="1006"/>
      <point x="37" y="992"/>
      <point x="37" y="949" type="curve" smooth="yes"/>
      <point x="37" y="868" type="line" smooth="yes"/>
      <point x="37" y="825"/>
      <point x="49" y="811"/>
      <point x="63" y="811" type="curve" smooth="yes"/>
      <point x="121" y="811" type="line" smooth="yes"/>
      <point x="128" y="811"/>
      <point x="133" y="809"/>
      <point x="133" y="789" type="curve" smooth="yes"/>
      <point x="133" y="335" type="line" smooth="yes"/>
      <point x="133" y="11"/>
      <point x="276" y="-1"/>
    </contour>
    <contour>
      <point x="290" y="503" type="move" name="center"/>
    </contour>
    <contour>
      <point x="290" y="0" type="move" name="bottom"/>
    </contour>
  </outline>
</glyph>
<glyph name="w" format="1">
  <advance width="932"/>
  <unicode hex="0077"/>
  <outline>
    <contour>
      <point x="227" y="0" type="curve" smooth="yes"/>
      <point x="373" y="0" type="line" smooth="yes"/>
      <point x="388" y="0"/>
      <point x="402" y="11"/>
      <point x="406" y="54" type="curve"/>
      <point x="476" y="567" type="line" smooth="yes"/>
      <point x="477" y="572"/>
      <point x="479" y="575"/>
      <point x="480" y="575" type="curve" smooth="yes"/>
      <point x="482" y="575"/>
      <point x="483" y="572"/>
      <point x="483" y="567" type="curve" smooth="yes"/>
      <point x="546" y="54" type="line"/>
      <point x="550" y="11"/>
      <point x="564" y="0"/>
      <point x="579" y="0" type="curve" smooth="yes"/>
      <point x="718" y="0" type="line" smooth="yes"/>
      <point x="734" y="0"/>
      <point x="748" y="9"/>
      <point x="754" y="51" type="curve" smooth="yes"/>
      <point x="870" y="943" type="line" smooth="yes"/>
      <point x="871" y="950"/>
      <point x="871" y="956"/>
      <point x="871" y="963" type="curve" smooth="yes"/>
      <point x="871" y="990"/>
      <point x="864" y="1006"/>
      <point x="853" y="1006" type="curve" smooth="yes"/>
      <point x="739" y="1006" type="line" smooth="yes"/>
      <point x="724" y="1006"/>
      <point x="710" y="990"/>
      <point x="707" y="947" type="curve"/>
      <point x="649" y="411" type="line" smooth="yes"/>
      <point x="649" y="406"/>
      <point x="648" y="403"/>
      <point x="647" y="403" type="curve" smooth="yes"/>
      <point x="645" y="403"/>
      <point x="643" y="405"/>
      <point x="643" y="410" type="curve" smooth="yes"/>
      <point x="581" y="948" type="line" smooth="yes"/>
      <point x="577" y="991"/>
      <point x="562" y="1006"/>
      <point x="548" y="1006" type="curve" smooth="yes"/>
      <point x="426" y="1006" type="line" smooth="yes"/>
      <point x="411" y="1006"/>
      <point x="396" y="991"/>
      <point x="392" y="948" type="curve"/>
      <point x="325" y="412" type="line" smooth="yes"/>
      <point x="325" y="408"/>
      <point x="323" y="405"/>
      <point x="321" y="405" type="curve"/>
      <point x="321" y="405"/>
      <point x="319" y="408"/>
      <point x="318" y="413" type="curve" smooth="yes"/>
      <point x="260" y="946" type="line" smooth="yes"/>
      <point x="256" y="990"/>
      <point x="243" y="1006"/>
      <point x="227" y="1006" type="curve" smooth="yes"/>
      <point x="79" y="1006" type="line" smooth="yes"/>
      <point x="68" y="1006"/>
      <point x="61" y="989"/>
      <point x="61" y="961" type="curve" smooth="yes"/>
      <point x="61" y="955"/>
      <point x="61" y="948"/>
      <point x="62" y="942" type="curve" smooth="yes"/>
      <point x="192" y="52" type="line"/>
      <point x="197" y="9"/>
      <point x="212" y="0"/>
    </contour>
    <contour>
      <point x="466" y="1006" type="move" name="top"/>
    </contour>
  </outline>
</glyph>
<glyph name="braceright" format="1">
  <advance width="541"/>
  <unicode hex="007D"/>
  <outline>
    <contour>
      <point x="108.0" y="-123.0" type="curve" smooth="yes"/>
      <point x="211.0" y="-123.0" type="line" smooth="yes"/>
      <point x="310.0" y="-123.0"/>
      <point x="368.0" y="-10.0"/>
      <point x="373.0" y="262.0" type="curve" smooth="yes"/>
      <point x="373.0" y="273.0"/>
      <point x="374" y="332"/>
      <point x="375" y="349" type="curve" smooth="yes"/>
      <point x="379" y="487"/>
      <point x="400.0" y="581.0"/>
      <point x="454.0" y="583.0" type="curve" smooth="yes"/>
      <point x="477.0" y="584.0"/>
      <point x="480.0" y="608.0"/>
      <point x="480.0" y="664.0" type="curve" smooth="yes"/>
      <point x="480.0" y="746.0" type="line" smooth="yes"/>
      <point x="480.0" y="802.0"/>
      <point x="479.0" y="836.0"/>
      <point x="454.0" y="837.0" type="curve" smooth="yes"/>
      <point x="402.0" y="839.0"/>
      <point x="378.0" y="904.0"/>
      <point x="374.0" y="1051.0" type="curve" smooth="yes"/>
      <point x="374.0" y="1075.0"/>
      <point x="374.0" y="1104.0"/>
      <point x="374.0" y="1132.0" type="curve" smooth="yes"/>
      <point x="369.0" y="1402.0"/>
      <point x="315.0" y="1543.0"/>
      <point x="211.0" y="1543.0" type="curve" smooth="yes"/>
      <point x="108.0" y="1543.0" type="line" smooth="yes"/>
      <point x="94.0" y="1543.0"/>
      <point x="82.0" y="1508.0"/>
      <point x="82.0" y="1466.0" type="curve" smooth="yes"/>
      <point x="82.0" y="1436.0" type="line" smooth="yes"/>
      <point x="82.0" y="1384.0"/>
      <point x="87.0" y="1352.0"/>
      <point x="108.0" y="1352.0" type="curve" smooth="yes"/>
      <point x="158.0" y="1352.0"/>
      <point x="164.0" y="1279.0"/>
      <point x="165.0" y="1131.0" type="curve" smooth="yes"/>
      <point x="165.0" y="1099.0"/>
      <point x="165.0" y="1062.0"/>
      <point x="165.0" y="1025.0" type="curve" smooth="yes"/>
      <point x="166.0" y="889.0"/>
      <point x="171.0" y="754.0"/>
      <point x="233.0" y="725.0" type="curve" smooth="yes"/>
      <point x="241.0" y="721.0"/>
      <point x="240.0" y="698.0"/>
      <point x="233.0" y="695.0" type="curve" smooth="yes"/>
      <point x="167.0" y="663.0"/>
      <point x="162.0" y="510.0"/>
      <point x="161.0" y="363.0" type="curve" smooth="yes"/>
      <point x="161.0" y="347.0"/>
      <point x="161.0" y="272.0"/>
      <point x="161.0" y="253.0" type="curve" smooth="yes"/>
      <point x="159.0" y="122.0"/>
      <point x="153.0" y="68.0"/>
      <point x="108.0" y="68.0" type="curve" smooth="yes"/>
      <point x="87.0" y="68.0"/>
      <point x="82.0" y="36.0"/>
      <point x="82.0" y="-16.0" type="curve" smooth="yes"/>
      <point x="82.0" y="-46.0" type="line" smooth="yes"/>
      <point x="82.0" y="-88.0"/>
      <point x="94.0" y="-123.0"/>
    </contour>
  </outline>
</glyph>
<glyph name="cent" format="1">
  <advance width="624"/>
  <unicode hex="00A2"/>
  <outline>
    <contour>
      <point x="430" y="-170" type="curve" smooth="yes"/>
      <point x="465" y="-170" type="line" smooth="yes"/>
      <point x="480" y="-170"/>
      <point x="492" y="-156"/>
      <point x="492" y="-113" type="curve" smooth="yes"/>
      <point x="492" y="-5" type="line"/>
      <point x="512" y="-2"/>
      <point x="537" y="-2"/>
      <point x="551" y="8" type="curve" smooth="yes"/>
      <point x="558" y="13"/>
      <point x="562" y="20"/>
      <point x="562" y="31" type="curve" smooth="yes"/>
      <point x="562" y="163" type="line" smooth="yes"/>
      <point x="562" y="176"/>
      <point x="556" y="188"/>
      <point x="547" y="190" type="curve"/>
      <point x="533" y="186"/>
      <point x="514" y="181"/>
      <point x="492" y="178" type="curve"/>
      <point x="492" y="829" type="line"/>
      <point x="508" y="827"/>
      <point x="532" y="815"/>
      <point x="548" y="815" type="curve" smooth="yes"/>
      <point x="557" y="815"/>
      <point x="563" y="819"/>
      <point x="562" y="833" type="curve"/>
      <point x="562" y="975" type="line" smooth="yes"/>
      <point x="562" y="982"/>
      <point x="557" y="987"/>
      <point x="549" y="991" type="curve" smooth="yes"/>
      <point x="534" y="999"/>
      <point x="507" y="1002"/>
      <point x="492" y="1006" type="curve"/>
      <point x="492" y="1168" type="line" smooth="yes"/>
      <point x="492" y="1211"/>
      <point x="480" y="1225"/>
      <point x="465" y="1225" type="curve" smooth="yes"/>
      <point x="430" y="1225" type="line" smooth="yes"/>
      <point x="415" y="1225"/>
      <point x="403" y="1211"/>
      <point x="403" y="1168" type="curve" smooth="yes"/>
      <point x="403" y="1017" type="line"/>
      <point x="239" y="1017"/>
      <point x="82" y="920"/>
      <point x="82" y="510" type="curve" smooth="yes"/>
      <point x="82" y="69"/>
      <point x="238" y="-4"/>
      <point x="403" y="-10" type="curve"/>
      <point x="403" y="-113" type="line" smooth="yes"/>
      <point x="403" y="-156"/>
      <point x="415" y="-170"/>
    </contour>
    <contour>
      <point x="403" y="180" type="line"/>
      <point x="344" y="192"/>
      <point x="307" y="250"/>
      <point x="307" y="510" type="curve" smooth="yes"/>
      <point x="307" y="737"/>
      <point x="348" y="805"/>
      <point x="403" y="825" type="curve"/>
    </contour>
  </outline>
</glyph>
<glyph name="sterling" format="1">
  <advance width="1029"/>
  <unicode hex="00A3"/>
  <outline>
    <contour>
      <point x="111" y="0" type="curve" smooth="yes"/>
      <point x="963" y="0" type="line" smooth="yes"/>
      <point x="995" y="0"/>
      <point x="1012" y="10"/>
      <point x="1012" y="45" type="curve" smooth="yes"/>
      <point x="1012" y="139" type="line" smooth="yes"/>
      <point x="1012" y="181"/>
      <point x="995" y="195"/>
      <point x="963" y="195" type="curve" smooth="yes"/>
      <point x="521" y="195" type="line" smooth="yes"/>
      <point x="485" y="195"/>
      <point x="483" y="205"/>
      <point x="483" y="245" type="curve" smooth="yes"/>
      <point x="483" y="659" type="line"/>
      <point x="736" y="659" type="line" smooth="yes"/>
      <point x="779" y="659"/>
      <point x="799" y="682"/>
      <point x="799" y="725" type="curve" smooth="yes"/>
      <point x="799" y="777" type="line" smooth="yes"/>
      <point x="799" y="820"/>
      <point x="779" y="843"/>
      <point x="736" y="843" type="curve" smooth="yes"/>
      <point x="485" y="843" type="line"/>
      <point x="485" y="924" type="line" smooth="yes"/>
      <point x="485" y="1186"/>
      <point x="516" y="1257"/>
      <point x="700" y="1257" type="curve" smooth="yes"/>
      <point x="841" y="1257"/>
      <point x="870" y="1208"/>
      <point x="936" y="1208" type="curve" smooth="yes"/>
      <point x="962" y="1208"/>
      <point x="972" y="1221"/>
      <point x="980" y="1252" type="curve"/>
      <point x="1001" y="1353" type="line" smooth="yes"/>
      <point x="1009.5" y="1395.5"/>
      <point x="987.533333333" y="1402.6"/>
      <point x="949" y="1423" type="curve" smooth="yes"/>
      <point x="906" y="1445"/>
      <point x="805" y="1475"/>
      <point x="696" y="1475" type="curve" smooth="yes"/>
      <point x="257" y="1475"/>
      <point x="215" y="1222"/>
      <point x="215" y="995" type="curve" smooth="yes"/>
      <point x="215" y="942"/>
      <point x="217" y="890"/>
      <point x="217" y="843" type="curve"/>
      <point x="121" y="843" type="line" smooth="yes"/>
      <point x="78" y="843"/>
      <point x="58" y="820"/>
      <point x="58" y="777" type="curve" smooth="yes"/>
      <point x="58" y="725" type="line" smooth="yes"/>
      <point x="58" y="682"/>
      <point x="78" y="659"/>
      <point x="121" y="659" type="curve" smooth="yes"/>
      <point x="190" y="659" type="line" smooth="yes"/>
      <point x="215" y="659"/>
      <point x="222" y="643"/>
      <point x="222" y="616" type="curve" smooth="yes"/>
      <point x="222" y="219" type="line" smooth="yes"/>
      <point x="222" y="200"/>
      <point x="219" y="195"/>
      <point x="190" y="195" type="curve" smooth="yes"/>
      <point x="111" y="195" type="line" smooth="yes"/>
      <point x="68" y="195"/>
      <point x="58" y="168"/>
      <point x="58" y="125" type="curve" smooth="yes"/>
      <point x="58" y="66" type="line" smooth="yes"/>
      <point x="58" y="23"/>
      <point x="68" y="0"/>
    </contour>
  </outline>
</glyph>
<glyph name="guillemotleft" format="1">
  <advance width="918"/>
  <unicode hex="00AB"/>
  <outline>
    <contour>
      <point x="411.0" y="206.0" type="line" smooth="yes"/>
      <point x="414.0" y="202.0"/>
      <point x="417.0" y="200.0"/>
      <point x="419.0" y="200.0" type="curve" smooth="yes"/>
      <point x="426.0" y="200.0"/>
      <point x="434.0" y="219.0"/>
      <point x="434.0" y="246.0" type="curve" smooth="yes"/>
      <point x="434.0" y="406.0" type="line" smooth="yes"/>
      <point x="434.0" y="452.0"/>
      <point x="425.0" y="496.0"/>
      <point x="410.0" y="516.0" type="curve" smooth="yes"/>
      <point x="238.0" y="674.0" type="line" smooth="yes"/>
      <point x="234.876" y="676.869"/>
      <point x="234.0" y="684.0"/>
      <point x="234.0" y="690.0" type="curve" smooth="yes"/>
      <point x="234.0" y="696.0"/>
      <point x="233.68" y="703.006"/>
      <point x="237.0" y="706.0" type="curve" smooth="yes"/>
      <point x="410.0" y="862.0" type="line" smooth="yes"/>
      <point x="424.0" y="881.0"/>
      <point x="434.0" y="925.0"/>
      <point x="434.0" y="971.0" type="curve" smooth="yes"/>
      <point x="434.0" y="1114.0" type="line" smooth="yes"/>
      <point x="434.0" y="1141.0"/>
      <point x="426.0" y="1160.0"/>
      <point x="418.0" y="1160.0" type="curve" smooth="yes"/>
      <point x="416.0" y="1160.0"/>
      <point x="414.561" y="1158.51"/>
      <point x="411.0" y="1155.0" type="curve" smooth="yes"/>
      <point x="134.0" y="882.0" type="line" smooth="yes"/>
      <point x="114.986" y="864.153"/>
      <point x="111.0" y="816.0"/>
      <point x="111.0" y="769.0" type="curve" smooth="yes"/>
      <point x="111.0" y="605.0" type="line" smooth="yes"/>
      <point x="111.0" y="558.0"/>
      <point x="114.791" y="509.667"/>
      <point x="133.0" y="491.0" type="curve" smooth="yes"/>
    </contour>
    <contour>
      <point x="806.0" y="206.0" type="line" smooth="yes"/>
      <point x="809.0" y="202.0"/>
      <point x="812.0" y="200.0"/>
      <point x="814.0" y="200.0" type="curve" smooth="yes"/>
      <point x="821.0" y="200.0"/>
      <point x="829.0" y="219.0"/>
      <point x="829.0" y="246.0" type="curve" smooth="yes"/>
      <point x="829.0" y="406.0" type="line" smooth="yes"/>
      <point x="829.0" y="452.0"/>
      <point x="820.0" y="496.0"/>
      <point x="805.0" y="516.0" type="curve" smooth="yes"/>
      <point x="633.0" y="674.0" type="line" smooth="yes"/>
      <point x="629.876" y="676.869"/>
      <point x="629.0" y="684.0"/>
      <point x="629.0" y="690.0" type="curve" smooth="yes"/>
      <point x="629.0" y="696.0"/>
      <point x="628.68" y="703.006"/>
      <point x="632.0" y="706.0" type="curve" smooth="yes"/>
      <point x="805.0" y="862.0" type="line" smooth="yes"/>
      <point x="819.0" y="881.0"/>
      <point x="829.0" y="925.0"/>
      <point x="829.0" y="971.0" type="curve" smooth="yes"/>
      <point x="829.0" y="1114.0" type="line" smooth="yes"/>
      <point x="829.0" y="1141.0"/>
      <point x="821.0" y="1160.0"/>
      <point x="813.0" y="1160.0" type="curve" smooth="yes"/>
      <point x="811.0" y="1160.0"/>
      <point x="809.561" y="1158.51"/>
      <point x="806.0" y="1155.0" type="curve" smooth="yes"/>
      <point x="529.0" y="882.0" type="line" smooth="yes"/>
      <point x="509.986" y="864.153"/>
      <point x="506.0" y="816.0"/>
      <point x="506.0" y="769.0" type="curve" smooth="yes"/>
      <point x="506.0" y="605.0" type="line" smooth="yes"/>
      <point x="506.0" y="558.0"/>
      <point x="509.791" y="509.667"/>
      <point x="528.0" y="491.0" type="curve" smooth="yes"/>
    </contour>
  </outline>
</glyph>
<glyph name="macron" format="1">
  <advance width="1079"/>
  <unicode hex="00AF"/>
  <outline>
    <contour>
      <point x="368" y="1087" type="curve" smooth="yes"/>
      <point x="723" y="1087" type="line" smooth="yes"/>
      <point x="753" y="1087"/>
      <point x="767" y="1106"/>
      <point x="767" y="1136" type="curve" smooth="yes"/>
      <point x="767" y="1179" type="line" smooth="yes"/>
      <point x="767" y="1209"/>
      <point x="753" y="1228"/>
      <point x="723" y="1228" type="curve" smooth="yes"/>
      <point x="368" y="1228" type="line" smooth="yes"/>
      <point x="338" y="1228"/>
      <point x="325" y="1209"/>
      <point x="325" y="1179" type="curve" smooth="yes"/>
      <point x="325" y="1136" type="line" smooth="yes"/>
      <point x="325" y="1106"/>
      <point x="338" y="1087"/>
    </contour>
    <contour>
      <point x="546" y="1006" type="move" name="_top"/>
    </contour>
  </outline>
</glyph>
<glyph name="periodcentered" format="1">
  <advance width="434"/>
  <unicode hex="00B7"/>
  <outline>
    <contour>
      <point x="130" y="0" type="curve" smooth="yes"/>
      <point x="302" y="0" type="line" smooth="yes"/>
      <point x="317" y="0"/>
      <point x="329" y="4"/>
      <point x="329" y="47" type="curve" smooth="yes"/>
      <point x="329" y="233" type="line" smooth="yes"/>
      <point x="329" y="276"/>
      <point x="317" y="280"/>
      <point x="302" y="280" type="curve" smooth="yes"/>
      <point x="130" y="280" type="line" smooth="yes"/>
      <point x="115" y="280"/>
      <point x="103" y="276"/>
      <point x="103" y="233" type="curve" smooth="yes"/>
      <point x="103" y="47" type="line" smooth="yes"/>
      <point x="103" y="4"/>
      <point x="115" y="0"/>
    </contour>
  </outline>
</glyph>
<glyph name="onesuperior" format="1">
  <advance width="496"/>
  <unicode hex="00B9"/>
  <outline>
    <contour>
      <point x="181" y="418" type="curve" smooth="yes"/>
      <point x="316" y="418" type="line" smooth="yes"/>
      <point x="327" y="418"/>
      <point x="336" y="435"/>
      <point x="336" y="466" type="curve" smooth="yes"/>
      <point x="336" y="1401" type="line" smooth="yes"/>
      <point x="336" y="1428.75"/>
      <point x="328.787" y="1440.48"/>
      <point x="319.384" y="1440.48" type="curve" smooth="yes"/>
      <point x="318.283" y="1440.48"/>
      <point x="317.153" y="1440.31"/>
      <point x="316" y="1440" type="curve" smooth="yes"/>
      <point x="104" y="1383" type="line" smooth="yes"/>
      <point x="94" y="1381"/>
      <point x="86" y="1371"/>
      <point x="86" y="1341" type="curve" smooth="yes"/>
      <point x="86" y="1249" type="line" smooth="yes"/>
      <point x="86" y="1218"/>
      <point x="94" y="1207"/>
      <point x="104" y="1210" type="curve" smooth="yes"/>
      <point x="153" y="1221" type="line" smooth="yes"/>
      <point x="158" y="1222"/>
      <point x="163" y="1210"/>
      <point x="163" y="1195" type="curve" smooth="yes"/>
      <point x="163" y="466" type="line" smooth="yes"/>
      <point x="163" y="435"/>
      <point x="171" y="418"/>
    </contour>
  </outline>
</glyph>
<glyph name="ordmasculine" format="1">
  <advance width="716"/>
  <unicode hex="00BA"/>
  <outline>
    <contour>
      <point x="359" y="798" type="curve" smooth="yes"/>
      <point x="302" y="798"/>
      <point x="272" y="833"/>
      <point x="272" y="1065" type="curve" smooth="yes"/>
      <point x="272" y="1278"/>
      <point x="302" y="1324"/>
      <point x="359" y="1324" type="curve" smooth="yes"/>
      <point x="415" y="1324"/>
      <point x="444" y="1278"/>
      <point x="444" y="1065" type="curve" smooth="yes"/>
      <point x="444" y="833"/>
      <point x="414" y="798"/>
    </contour>
    <contour>
      <point x="359" y="663" type="curve" smooth="yes"/>
      <point x="471" y="663"/>
      <point x="636" y="670"/>
      <point x="636" y="1065" type="curve" smooth="yes"/>
      <point x="636" y="1451"/>
      <point x="460" y="1460"/>
      <point x="359" y="1460" type="curve" smooth="yes"/>
      <point x="257" y="1460"/>
      <point x="80" y="1451"/>
      <point x="80" y="1065" type="curve" smooth="yes"/>
      <point x="80" y="670"/>
      <point x="246" y="663"/>
    </contour>
  </outline>
</glyph>
<glyph name="onequarter" format="1">
  <advance width="1384"/>
  <unicode hex="00BC"/>
  <outline>
    <contour>
      <point x="1069" y="0" type="curve" smooth="yes"/>
      <point x="1163" y="0" type="line" smooth="yes"/>
      <point x="1181" y="0"/>
      <point x="1191" y="18"/>
      <point x="1191" y="48" type="curve" smooth="yes"/>
      <point x="1191" y="204" type="line"/>
      <point x="1265" y="204" type="line" smooth="yes"/>
      <point x="1282" y="204"/>
      <point x="1293" y="222"/>
      <point x="1293" y="251" type="curve" smooth="yes"/>
      <point x="1293" y="308" type="line" smooth="yes"/>
      <point x="1293" y="338"/>
      <point x="1282" y="356"/>
      <point x="1265" y="356" type="curve" smooth="yes"/>
      <point x="1191" y="356" type="line"/>
      <point x="1191" y="975" type="line" smooth="yes"/>
      <point x="1191" y="1005"/>
      <point x="1181" y="1024"/>
      <point x="1163" y="1024" type="curve" smooth="yes"/>
      <point x="1069" y="1024" type="line" smooth="yes"/>
      <point x="1052" y="1024"/>
      <point x="1042" y="1005"/>
      <point x="1042" y="975" type="curve" smooth="yes"/>
      <point x="1042" y="356" type="line"/>
      <point x="919" y="356" type="line" smooth="yes"/>
      <point x="912" y="356"/>
      <point x="907" y="364"/>
      <point x="907" y="375" type="curve" smooth="yes"/>
      <point x="907" y="380" type="line" smooth="yes"/>
      <point x="954" y="975" type="line" smooth="yes"/>
      <point x="954" y="985" type="line" smooth="yes"/>
      <point x="954" y="1009"/>
      <point x="941" y="1024"/>
      <point x="926" y="1024" type="curve" smooth="yes"/>
      <point x="849" y="1024" type="line" smooth="yes"/>
      <point x="832" y="1024"/>
      <point x="827" y="1005"/>
      <point x="822" y="975" type="curve"/>
      <point x="746" y="251" type="line" smooth="yes"/>
      <point x="745" y="248"/>
      <point x="744" y="246"/>
      <point x="744" y="242" type="curve" smooth="yes"/>
      <point x="744" y="219"/>
      <point x="758" y="204"/>
      <point x="773" y="204" type="curve" smooth="yes"/>
      <point x="1042" y="204" type="line"/>
      <point x="1042" y="48" type="line" smooth="yes"/>
      <point x="1042" y="18"/>
      <point x="1052" y="0"/>
    </contour>
    <contour>
      <point x="181" y="418" type="curve" smooth="yes"/>
      <point x="316" y="418" type="line" smooth="yes"/>
      <point x="327" y="418"/>
      <point x="336" y="435"/>
      <point x="336" y="466" type="curve" smooth="yes"/>
      <point x="336" y="1401" type="line" smooth="yes"/>
      <point x="336" y="1432"/>
      <point x="327" y="1443"/>
      <point x="316" y="1440" type="curve" smooth="yes"/>
      <point x="104" y="1383" type="line" smooth="yes"/>
      <point x="94" y="1381"/>
      <point x="86" y="1371"/>
      <point x="86" y="1341" type="curve" smooth="yes"/>
      <point x="86" y="1249" type="line" smooth="yes"/>
      <point x="86" y="1218"/>
      <point x="94" y="1207"/>
      <point x="104" y="1210" type="curve" smooth="yes"/>
      <point x="153" y="1221" type="line" smooth="yes"/>
      <point x="158" y="1222"/>
      <point x="163" y="1210"/>
      <point x="163" y="1195" type="curve" smooth="yes"/>
      <point x="163" y="466" type="line" smooth="yes"/>
      <point x="163" y="435"/>
      <point x="171" y="418"/>
    </contour>
    <contour>
      <point x="366" y="-19" type="curve" smooth="yes"/>
      <point x="480" y="-19" type="line" smooth="yes"/>
      <point x="487" y="-19"/>
      <point x="495" y="-6"/>
      <point x="498" y="14" type="curve"/>
      <point x="794" y="1443" type="line" smooth="yes"/>
      <point x="794.701" y="1446.51"/>
      <point x="795.02" y="1450.18"/>
      <point x="795.02" y="1453.75" type="curve" smooth="yes"/>
      <point x="795.02" y="1465.43"/>
      <point x="791.597" y="1476"/>
      <point x="787" y="1476" type="curve" smooth="yes"/>
      <point x="674" y="1476" type="line" smooth="yes"/>
      <point x="667" y="1476"/>
      <point x="659" y="1463"/>
      <point x="656" y="1443" type="curve"/>
      <point x="359" y="14" type="line" smooth="yes"/>
      <point x="358.64" y="11.2971"/>
      <point x="358.474" y="8.49671"/>
      <point x="358.474" y="5.72181" type="curve" smooth="yes"/>
      <point x="358.474" y="-6.90259"/>
      <point x="361.901" y="-19"/>
    </contour>
  </outline>
</glyph>
<glyph name="onehalf" format="1">
  <advance width="1129"/>
  <unicode hex="00BD"/>
  <outline>
    <contour>
      <point x="801" y="-1" type="curve" smooth="yes"/>
      <point x="1164" y="-1" type="line" smooth="yes"/>
      <point x="1172" y="-1"/>
      <point x="1175" y="9"/>
      <point x="1175" y="40" type="curve" smooth="yes"/>
      <point x="1175" y="91" type="line" smooth="yes"/>
      <point x="1175" y="124"/>
      <point x="1171" y="136"/>
      <point x="1165" y="136" type="curve" smooth="yes"/>
      <point x="970" y="136" type="line" smooth="yes"/>
      <point x="963" y="136"/>
      <point x="953" y="141"/>
      <point x="953" y="164" type="curve" smooth="yes"/>
      <point x="953" y="175"/>
      <point x="955" y="179"/>
      <point x="956" y="183" type="curve" smooth="yes"/>
      <point x="1044" y="504"/>
      <point x="1149" y="532"/>
      <point x="1198" y="746" type="curve" smooth="yes"/>
      <point x="1205" y="777"/>
      <point x="1206" y="805"/>
      <point x="1206" y="829" type="curve" smooth="yes"/>
      <point x="1206" y="1013"/>
      <point x="1064" y="1040"/>
      <point x="960" y="1040" type="curve"/>
      <point x="907" y="1039"/>
      <point x="828" y="1018"/>
      <point x="802" y="984" type="curve" smooth="yes"/>
      <point x="797" y="976"/>
      <point x="794" y="961"/>
      <point x="794" y="936" type="curve" smooth="yes"/>
      <point x="794" y="933"/>
      <point x="797" y="900"/>
      <point x="804" y="853" type="curve"/>
      <point x="804" y="838"/>
      <point x="809" y="832"/>
      <point x="816" y="832" type="curve" smooth="yes"/>
      <point x="819" y="832"/>
      <point x="822" y="835"/>
      <point x="826" y="839" type="curve" smooth="yes"/>
      <point x="831" y="845"/>
      <point x="889" y="884"/>
      <point x="954" y="884" type="curve" smooth="yes"/>
      <point x="992" y="884"/>
      <point x="1044" y="852"/>
      <point x="1044" y="793" type="curve" smooth="yes"/>
      <point x="1044" y="785"/>
      <point x="1043" y="776"/>
      <point x="1041" y="766" type="curve" smooth="yes"/>
      <point x="1005" y="619"/>
      <point x="814" y="460"/>
      <point x="782" y="105" type="curve" smooth="yes"/>
      <point x="781" y="97"/>
      <point x="780" y="69"/>
      <point x="780" y="62" type="curve" smooth="yes"/>
      <point x="780" y="23"/>
      <point x="788" y="-1"/>
    </contour>
    <contour>
      <point x="181" y="418" type="curve" smooth="yes"/>
      <point x="316" y="418" type="line" smooth="yes"/>
      <point x="327" y="418"/>
      <point x="336" y="435"/>
      <point x="336" y="466" type="curve" smooth="yes"/>
      <point x="336" y="1401" type="line" smooth="yes"/>
      <point x="336" y="1432"/>
      <point x="327" y="1443"/>
      <point x="316" y="1440" type="curve" smooth="yes"/>
      <point x="104" y="1383" type="line" smooth="yes"/>
      <point x="94" y="1381"/>
      <point x="86" y="1371"/>
      <point x="86" y="1341" type="curve" smooth="yes"/>
      <point x="86" y="1249" type="line" smooth="yes"/>
      <point x="86" y="1218"/>
      <point x="94" y="1207"/>
      <point x="104" y="1210" type="curve" smooth="yes"/>
      <point x="153" y="1221" type="line" smooth="yes"/>
      <point x="158" y="1222"/>
      <point x="163" y="1210"/>
      <point x="163" y="1195" type="curve" smooth="yes"/>
      <point x="163" y="466" type="line" smooth="yes"/>
      <point x="163" y="435"/>
      <point x="171" y="418"/>
    </contour>
    <contour>
      <point x="366" y="-19" type="curve" smooth="yes"/>
      <point x="480" y="-19" type="line" smooth="yes"/>
      <point x="487" y="-19"/>
      <point x="495" y="-6"/>
      <point x="498" y="14" type="curve"/>
      <point x="794" y="1443" type="line" smooth="yes"/>
      <point x="794.701" y="1446.51"/>
      <point x="795.02" y="1450.18"/>
      <point x="795.02" y="1453.75" type="curve" smooth="yes"/>
      <point x="795.02" y="1465.43"/>
      <point x="791.597" y="1476"/>
      <point x="787" y="1476" type="curve" smooth="yes"/>
      <point x="674" y="1476" type="line" smooth="yes"/>
      <point x="667" y="1476"/>
      <point x="659" y="1463"/>
      <point x="656" y="1443" type="curve"/>
      <point x="359" y="14" type="line" smooth="yes"/>
      <point x="358.64" y="11.2971"/>
      <point x="358.474" y="8.49671"/>
      <point x="358.474" y="5.72181" type="curve" smooth="yes"/>
      <point x="358.474" y="-6.90259"/>
      <point x="361.901" y="-19"/>
    </contour>
  </outline>
</glyph>
<glyph name="threequarters" format="1">
  <advance width="1243"/>
  <unicode hex="00BE"/>
  <outline>
    <contour>
      <point x="201" y="406" type="curve" smooth="yes"/>
      <point x="322" y="406"/>
      <point x="441" y="476"/>
      <point x="441" y="674" type="curve" smooth="yes"/>
      <point x="441" y="819"/>
      <point x="389" y="912"/>
      <point x="298" y="937" type="curve"/>
      <point x="393.969" y="959.362"/>
      <point x="438.718" y="1054.65"/>
      <point x="438.718" y="1173.51" type="curve" smooth="yes"/>
      <point x="438.718" y="1378.22"/>
      <point x="342.404" y="1459"/>
      <point x="214" y="1459" type="curve" smooth="yes"/>
      <point x="114" y="1459"/>
      <point x="79" y="1440"/>
      <point x="58" y="1425" type="curve" smooth="yes"/>
      <point x="51" y="1419"/>
      <point x="47" y="1407"/>
      <point x="47" y="1385" type="curve" smooth="yes"/>
      <point x="47" y="1376" type="line" smooth="yes"/>
      <point x="51" y="1306" type="line"/>
      <point x="51" y="1284"/>
      <point x="55" y="1274"/>
      <point x="60" y="1274" type="curve" smooth="yes"/>
      <point x="61" y="1274"/>
      <point x="63" y="1275"/>
      <point x="65" y="1277" type="curve" smooth="yes"/>
      <point x="73" y="1281"/>
      <point x="112" y="1306"/>
      <point x="185" y="1306" type="curve" smooth="yes"/>
      <point x="243.948" y="1306"/>
      <point x="278.204" y="1269.96"/>
      <point x="278.204" y="1166.65" type="curve" smooth="yes"/>
      <point x="278.204" y="1087.02"/>
      <point x="247.747" y="1015"/>
      <point x="179" y="1015" type="curve" smooth="yes"/>
      <point x="153" y="1015" type="line" smooth="yes"/>
      <point x="132" y="1015"/>
      <point x="128" y="1010"/>
      <point x="128" y="1000" type="curve" smooth="yes"/>
      <point x="128" y="892" type="line" smooth="yes"/>
      <point x="128" y="868"/>
      <point x="132" y="862"/>
      <point x="153" y="862" type="curve" smooth="yes"/>
      <point x="179" y="862" type="line" smooth="yes"/>
      <point x="248" y="862"/>
      <point x="282" y="777"/>
      <point x="282" y="706" type="curve" smooth="yes"/>
      <point x="282" y="627"/>
      <point x="248" y="558"/>
      <point x="174" y="558" type="curve" smooth="yes"/>
      <point x="107" y="558"/>
      <point x="71" y="588"/>
      <point x="63" y="592" type="curve" smooth="yes"/>
      <point x="61" y="594"/>
      <point x="59" y="595"/>
      <point x="58" y="595" type="curve" smooth="yes"/>
      <point x="53" y="595"/>
      <point x="51" y="585"/>
      <point x="49" y="565" type="curve"/>
      <point x="47" y="493" type="line" smooth="yes"/>
      <point x="47" y="484" type="line" smooth="yes"/>
      <point x="47" y="462"/>
      <point x="51" y="451"/>
      <point x="58" y="444" type="curve" smooth="yes"/>
      <point x="80" y="420"/>
      <point x="122" y="406"/>
    </contour>
    <contour>
      <point x="1069" y="0" type="curve" smooth="yes"/>
      <point x="1163" y="0" type="line" smooth="yes"/>
      <point x="1181" y="0"/>
      <point x="1191" y="18"/>
      <point x="1191" y="48" type="curve" smooth="yes"/>
      <point x="1191" y="204" type="line"/>
      <point x="1265" y="204" type="line" smooth="yes"/>
      <point x="1282" y="204"/>
      <point x="1293" y="222"/>
      <point x="1293" y="251" type="curve" smooth="yes"/>
      <point x="1293" y="308" type="line" smooth="yes"/>
      <point x="1293" y="338"/>
      <point x="1282" y="356"/>
      <point x="1265" y="356" type="curve" smooth="yes"/>
      <point x="1191" y="356" type="line"/>
      <point x="1191" y="975" type="line" smooth="yes"/>
      <point x="1191" y="1005"/>
      <point x="1181" y="1024"/>
      <point x="1163" y="1024" type="curve" smooth="yes"/>
      <point x="1069" y="1024" type="line" smooth="yes"/>
      <point x="1052" y="1024"/>
      <point x="1042" y="1005"/>
      <point x="1042" y="975" type="curve" smooth="yes"/>
      <point x="1042" y="356" type="line"/>
      <point x="919" y="356" type="line" smooth="yes"/>
      <point x="912" y="356"/>
      <point x="907" y="364"/>
      <point x="907" y="375" type="curve" smooth="yes"/>
      <point x="907" y="380" type="line" smooth="yes"/>
      <point x="954" y="975" type="line" smooth="yes"/>
      <point x="954" y="985" type="line" smooth="yes"/>
      <point x="954" y="1009"/>
      <point x="941" y="1024"/>
      <point x="926" y="1024" type="curve" smooth="yes"/>
      <point x="849" y="1024" type="line" smooth="yes"/>
      <point x="832" y="1024"/>
      <point x="827" y="1005"/>
      <point x="822" y="975" type="curve"/>
      <point x="746" y="251" type="line" smooth="yes"/>
      <point x="745" y="248"/>
      <point x="744" y="246"/>
      <point x="744" y="242" type="curve" smooth="yes"/>
      <point x="744" y="219"/>
      <point x="758" y="204"/>
      <point x="773" y="204" type="curve" smooth="yes"/>
      <point x="1042" y="204" type="line"/>
      <point x="1042" y="48" type="line" smooth="yes"/>
      <point x="1042" y="18"/>
      <point x="1052" y="0"/>
    </contour>
    <contour>
      <point x="414" y="-19" type="curve" smooth="yes"/>
      <point x="528" y="-19" type="line" smooth="yes"/>
      <point x="535" y="-19"/>
      <point x="543" y="-6"/>
      <point x="546" y="14" type="curve"/>
      <point x="842" y="1443" type="line" smooth="yes"/>
      <point x="842.701" y="1446.51"/>
      <point x="843.02" y="1450.18"/>
      <point x="843.02" y="1453.75" type="curve" smooth="yes"/>
      <point x="843.02" y="1465.43"/>
      <point x="839.597" y="1476"/>
      <point x="835" y="1476" type="curve" smooth="yes"/>
      <point x="722" y="1476" type="line" smooth="yes"/>
      <point x="715" y="1476"/>
      <point x="707" y="1463"/>
      <point x="704" y="1443" type="curve"/>
      <point x="407" y="14" type="line" smooth="yes"/>
      <point x="406.64" y="11.2971"/>
      <point x="406.474" y="8.49671"/>
      <point x="406.474" y="5.72181" type="curve" smooth="yes"/>
      <point x="406.474" y="-6.90259"/>
      <point x="409.901" y="-19"/>
    </contour>
  </outline>
</glyph>
<glyph name="AE" format="1">
  <advance width="1053"/>
  <unicode hex="00C6"/>
  <outline>
    <contour>
      <point x="65" y="0" type="curve" smooth="yes"/>
      <point x="65" y="0"/>
      <point x="258.568" y="-0.296296"/>
      <point x="261.638" y="-0.296296" type="curve" smooth="yes"/>
      <point x="272.383" y="-0.296296"/>
      <point x="281.111" y="3.33333"/>
      <point x="285" y="36" type="curve"/>
      <point x="335" y="263" type="line" smooth="yes"/>
      <point x="339" y="283"/>
      <point x="339" y="296"/>
      <point x="350" y="296" type="curve" smooth="yes"/>
      <point x="525" y="296" type="line"/>
      <point x="525" y="47" type="line" smooth="yes"/>
      <point x="525" y="4"/>
      <point x="537" y="0"/>
      <point x="552" y="0" type="curve" smooth="yes"/>
      <point x="977" y="0" type="line" smooth="yes"/>
      <point x="992" y="0"/>
      <point x="1004" y="4"/>
      <point x="1004" y="47" type="curve" smooth="yes"/>
      <point x="1004" y="165" type="line" smooth="yes"/>
      <point x="1004" y="208"/>
      <point x="992" y="212"/>
      <point x="977" y="212" type="curve" smooth="yes"/>
      <point x="787" y="212" type="line"/>
      <point x="787" y="571" type="line" smooth="yes"/>
      <point x="787" y="591"/>
      <point x="793" y="608"/>
      <point x="800" y="608" type="curve" smooth="yes"/>
      <point x="902" y="608" type="line" smooth="yes"/>
      <point x="917" y="608"/>
      <point x="928" y="622"/>
      <point x="928" y="665" type="curve" smooth="yes"/>
      <point x="928" y="779" type="line" smooth="yes"/>
      <point x="928" y="822"/>
      <point x="917" y="836"/>
      <point x="902" y="836" type="curve" smooth="yes"/>
      <point x="800" y="836" type="line" smooth="yes"/>
      <point x="793" y="836"/>
      <point x="787" y="853"/>
      <point x="787" y="873" type="curve" smooth="yes"/>
      <point x="787" y="1189" type="line" smooth="yes"/>
      <point x="787" y="1209"/>
      <point x="793" y="1226"/>
      <point x="800" y="1226" type="curve" smooth="yes"/>
      <point x="972" y="1226" type="line" smooth="yes"/>
      <point x="987" y="1226"/>
      <point x="999" y="1230"/>
      <point x="999" y="1273" type="curve" smooth="yes"/>
      <point x="999" y="1391" type="line" smooth="yes"/>
      <point x="999" y="1434"/>
      <point x="987" y="1438"/>
      <point x="972" y="1438" type="curve" smooth="yes"/>
      <point x="387" y="1438" type="line" smooth="yes"/>
      <point x="371" y="1438"/>
      <point x="357" y="1434"/>
      <point x="350" y="1393" type="curve"/>
      <point x="50" y="69" type="line"/>
      <point x="50" y="62"/>
      <point x="49" y="34"/>
      <point x="49" y="27" type="curve" smooth="yes"/>
      <point x="49" y="2"/>
      <point x="56" y="0"/>
    </contour>
    <contour>
      <point x="391" y="456" type="line" smooth="yes"/>
      <point x="372.538461538" y="456.0"/>
      <point x="368.666666667" y="474.0"/>
      <point x="374" y="490" type="curve" smooth="yes"/>
      <point x="516" y="1207" type="line" smooth="yes"/>
      <point x="517" y="1213"/>
      <point x="519" y="1216"/>
      <point x="521" y="1216" type="curve" smooth="yes"/>
      <point x="523" y="1216"/>
      <point x="525" y="1213"/>
      <point x="525" y="1206" type="curve" smooth="yes"/>
      <point x="525" y="481" type="line" smooth="yes"/>
      <point x="525" y="468"/>
      <point x="522" y="456"/>
      <point x="516" y="456" type="curve" smooth="yes"/>
    </contour>
    <contour>
      <point x="447" y="1438" type="move" name="top"/>
    </contour>
  </outline>
</glyph>
<glyph name="multiply" format="1">
  <advance width="801"/>
  <unicode hex="00D7"/>
  <outline>
    <contour>
      <point x="192" y="315" type="line" smooth="yes"/>
      <point x="204.0" y="303.0"/>
      <point x="217.0" y="294.0"/>
      <point x="247" y="324" type="curve" smooth="yes"/>
      <point x="399" y="476" type="line"/>
      <point x="551" y="324" type="line" smooth="yes"/>
      <point x="581.0" y="294.0"/>
      <point x="594.0" y="303.0"/>
      <point x="606" y="315" type="curve" smooth="yes"/>
      <point x="678" y="387" type="line" smooth="yes"/>
      <point x="690.0" y="399.0"/>
      <point x="698.0" y="411.0"/>
      <point x="668" y="441" type="curve" smooth="yes"/>
      <point x="516" y="593" type="line"/>
      <point x="668" y="745" type="line" smooth="yes"/>
      <point x="698.0" y="775.0"/>
      <point x="689.0" y="788.0"/>
      <point x="677" y="800" type="curve" smooth="yes"/>
      <point x="605" y="872" type="line" smooth="yes"/>
      <point x="593.0" y="884.0"/>
      <point x="581.0" y="892.0"/>
      <point x="551" y="862" type="curve" smooth="yes"/>
      <point x="399" y="710" type="line"/>
      <point x="247" y="862" type="line" smooth="yes"/>
      <point x="217.0" y="892.0"/>
      <point x="205.0" y="884.0"/>
      <point x="193" y="872" type="curve" smooth="yes"/>
      <point x="121" y="800" type="line" smooth="yes"/>
      <point x="109.0" y="788.0"/>
      <point x="100.0" y="775.0"/>
      <point x="130" y="745" type="curve" smooth="yes"/>
      <point x="282" y="593" type="line"/>
      <point x="130" y="441" type="line" smooth="yes"/>
      <point x="100.0" y="411.0"/>
      <point x="108.0" y="399.0"/>
      <point x="120" y="387" type="curve" smooth="yes"/>
    </contour>
  </outline>
</glyph>
<glyph name="Thorn" format="1">
  <advance width="920"/>
  <unicode hex="00DE"/>
  <outline>
    <contour>
      <point x="149" y="0" type="curve" smooth="yes"/>
      <point x="357" y="0" type="line" smooth="yes"/>
      <point x="372" y="0"/>
      <point x="384" y="14"/>
      <point x="384" y="57" type="curve" smooth="yes"/>
      <point x="384" y="293" type="line" smooth="yes"/>
      <point x="384" y="313"/>
      <point x="390" y="315"/>
      <point x="396" y="315" type="curve" smooth="yes"/>
      <point x="521" y="315" type="line" smooth="yes"/>
      <point x="690" y="315"/>
      <point x="862" y="363"/>
      <point x="862" y="776" type="curve" smooth="yes"/>
      <point x="862" y="1216"/>
      <point x="676" y="1244"/>
      <point x="490" y="1244" type="curve" smooth="yes"/>
      <point x="384" y="1244" type="line"/>
      <point x="384" y="1403" type="line" smooth="yes"/>
      <point x="384" y="1446"/>
      <point x="372" y="1460"/>
      <point x="357" y="1460" type="curve" smooth="yes"/>
      <point x="149" y="1460" type="line" smooth="yes"/>
      <point x="134" y="1460"/>
      <point x="122" y="1446"/>
      <point x="122" y="1403" type="curve" smooth="yes"/>
      <point x="122" y="57" type="line" smooth="yes"/>
      <point x="122" y="14"/>
      <point x="134" y="0"/>
    </contour>
    <contour>
      <point x="396" y="528" type="line" smooth="yes"/>
      <point x="390" y="528"/>
      <point x="384" y="531"/>
      <point x="384" y="551" type="curve" smooth="yes"/>
      <point x="384" y="1005" type="line" smooth="yes"/>
      <point x="384" y="1025"/>
      <point x="390" y="1032"/>
      <point x="396" y="1032" type="curve" smooth="yes"/>
      <point x="474" y="1032" type="line" smooth="yes"/>
      <point x="553" y="1032"/>
      <point x="600" y="1027"/>
      <point x="600" y="774" type="curve" smooth="yes"/>
      <point x="600" y="555"/>
      <point x="592" y="528"/>
      <point x="486" y="528" type="curve" smooth="yes"/>
    </contour>
  </outline>
</glyph>
<glyph name="germandbls" format="1">
  <advance width="943"/>
  <unicode hex="00DF"/>
  <outline>
    <contour>
      <point x="156" y="0" type="curve" smooth="yes"/>
      <point x="288" y="0" type="line" smooth="yes"/>
      <point x="316" y="0"/>
      <point x="324" y="35"/>
      <point x="324" y="86" type="curve" smooth="yes"/>
      <point x="324" y="955" type="line" smooth="yes"/>
      <point x="324" y="1215"/>
      <point x="389" y="1242"/>
      <point x="477" y="1242" type="curve" smooth="yes"/>
      <point x="606" y="1242"/>
      <point x="631" y="1163"/>
      <point x="631" y="1025" type="curve" smooth="yes"/>
      <point x="631" y="925"/>
      <point x="596" y="845"/>
      <point x="455" y="844" type="curve"/>
      <point x="432" y="844" type="line" smooth="yes"/>
      <point x="417" y="844"/>
      <point x="413" y="828"/>
      <point x="413" y="806" type="curve" smooth="yes"/>
      <point x="413" y="704" type="line" smooth="yes"/>
      <point x="413" y="685"/>
      <point x="418" y="670"/>
      <point x="432" y="670" type="curve" smooth="yes"/>
      <point x="471" y="670" type="line" smooth="yes"/>
      <point x="614" y="670"/>
      <point x="696" y="595"/>
      <point x="696" y="448" type="curve" smooth="yes"/>
      <point x="696" y="285"/>
      <point x="640" y="193"/>
      <point x="484" y="193" type="curve" smooth="yes"/>
      <point x="459" y="193" type="line" smooth="yes"/>
      <point x="446" y="193"/>
      <point x="439" y="176"/>
      <point x="439" y="158" type="curve" smooth="yes"/>
      <point x="439" y="42" type="line" smooth="yes"/>
      <point x="439" y="19"/>
      <point x="444" y="0"/>
      <point x="459" y="0" type="curve" smooth="yes"/>
      <point x="478" y="0" type="line" smooth="yes"/>
      <point x="713" y="0"/>
      <point x="895" y="106"/>
      <point x="895" y="434" type="curve" smooth="yes"/>
      <point x="895" y="600"/>
      <point x="822" y="696"/>
      <point x="708" y="761" type="curve" smooth="yes"/>
      <point x="701" y="765"/>
      <point x="699" y="778"/>
      <point x="706" y="783" type="curve" smooth="yes"/>
      <point x="774" y="835"/>
      <point x="818" y="929"/>
      <point x="818" y="1040" type="curve" smooth="yes"/>
      <point x="818" y="1339"/>
      <point x="661" y="1438"/>
      <point x="459" y="1438" type="curve" smooth="yes"/>
      <point x="212" y="1438"/>
      <point x="126" y="1232"/>
      <point x="126" y="969" type="curve" smooth="yes"/>
      <point x="126" y="77" type="line" smooth="yes"/>
      <point x="126" y="34"/>
      <point x="135" y="0"/>
    </contour>
  </outline>
</glyph>
<glyph name="ae" format="1">
  <advance width="1069"/>
  <unicode hex="00E6"/>
  <outline>
    <contour>
      <point x="287" y="-12" type="curve" smooth="yes"/>
      <point x="405" y="-12"/>
      <point x="501" y="72"/>
      <point x="554" y="219" type="curve"/>
      <point x="588" y="70"/>
      <point x="669" y="-10"/>
      <point x="770" y="-10" type="curve" smooth="yes"/>
      <point x="943" y="-10"/>
      <point x="1000" y="94"/>
      <point x="1000" y="234" type="curve" smooth="yes"/>
      <point x="1000" y="265"/>
      <point x="996" y="287"/>
      <point x="994" y="297" type="curve" smooth="yes"/>
      <point x="992" y="307"/>
      <point x="986" y="314"/>
      <point x="970" y="314" type="curve" smooth="yes"/>
      <point x="885" y="314" type="line" smooth="yes"/>
      <point x="872" y="314"/>
      <point x="864" y="308"/>
      <point x="862" y="290" type="curve" smooth="yes"/>
      <point x="856" y="237"/>
      <point x="847" y="165"/>
      <point x="775" y="165" type="curve" smooth="yes"/>
      <point x="719" y="165"/>
      <point x="665" y="199"/>
      <point x="665" y="421" type="curve" smooth="yes"/>
      <point x="665" y="437"/>
      <point x="668" y="455"/>
      <point x="674" y="455" type="curve" smooth="yes"/>
      <point x="994" y="455" type="line" smooth="yes"/>
      <point x="1007.51" y="455"/>
      <point x="1007" y="499.914"/>
      <point x="1007" y="520" type="curve" smooth="yes"/>
      <point x="1007" y="936"/>
      <point x="877" y="1018"/>
      <point x="756" y="1018" type="curve" smooth="yes"/>
      <point x="690" y="1018"/>
      <point x="617" y="971"/>
      <point x="579" y="876" type="curve"/>
      <point x="538" y="985"/>
      <point x="456" y="1017"/>
      <point x="379" y="1017" type="curve" smooth="yes"/>
      <point x="253" y="1017"/>
      <point x="143" y="948"/>
      <point x="111" y="816" type="curve" smooth="yes"/>
      <point x="104.000844773" y="786.998386308"/>
      <point x="106.999915895" y="747.000586317"/>
      <point x="118" y="745" type="curve" smooth="yes"/>
      <point x="118" y="745"/>
      <point x="261" y="706"/>
      <point x="263" y="706" type="curve" smooth="yes"/>
      <point x="270" y="706"/>
      <point x="277" y="710"/>
      <point x="282" y="730" type="curve" smooth="yes"/>
      <point x="300" y="804"/>
      <point x="330" y="842"/>
      <point x="378" y="842" type="curve" smooth="yes"/>
      <point x="443" y="842"/>
      <point x="457" y="787"/>
      <point x="457" y="668" type="curve" smooth="yes"/>
      <point x="457" y="619" type="line" smooth="yes"/>
      <point x="457" y="574"/>
      <point x="81" y="646"/>
      <point x="81" y="238" type="curve" smooth="yes"/>
      <point x="81" y="62"/>
      <point x="165" y="-12"/>
    </contour>
    <contour>
      <point x="329" y="144" type="curve" smooth="yes"/>
      <point x="285" y="144"/>
      <point x="272" y="189"/>
      <point x="272" y="250" type="curve" smooth="yes"/>
      <point x="272" y="381"/>
      <point x="341" y="440"/>
      <point x="444" y="476" type="curve" smooth="yes"/>
      <point x="446" y="477"/>
      <point x="451" y="478"/>
      <point x="452" y="478" type="curve" smooth="yes"/>
      <point x="462" y="478"/>
      <point x="462" y="407"/>
      <point x="462" y="393" type="curve" smooth="yes"/>
      <point x="462" y="278"/>
      <point x="402" y="144"/>
    </contour>
    <contour>
      <point x="670" y="590" type="line" smooth="yes"/>
      <point x="665" y="590"/>
      <point x="665" y="618"/>
      <point x="665" y="632" type="curve" smooth="yes"/>
      <point x="667" y="763"/>
      <point x="706" y="843"/>
      <point x="754" y="843" type="curve" smooth="yes"/>
      <point x="802" y="843"/>
      <point x="835" y="759"/>
      <point x="838" y="627" type="curve" smooth="yes"/>
      <point x="838" y="614"/>
      <point x="838" y="590"/>
      <point x="834" y="590" type="curve" smooth="yes"/>
    </contour>
    <contour>
      <point x="535" y="1006" type="move" name="top"/>
    </contour>
  </outline>
</glyph>
<glyph name="eth" format="1">
  <advance width="842"/>
  <unicode hex="00F0"/>
  <outline>
    <contour>
      <point x="417.965" y="-21.2158" type="curve" smooth="yes"/>
      <point x="645.641" y="-21.2158"/>
      <point x="758" y="93.7646"/>
      <point x="758" y="630" type="curve" smooth="yes"/>
      <point x="758" y="933.742"/>
      <point x="687.341" y="1114.25"/>
      <point x="587.356" y="1220.99" type="curve"/>
      <point x="645.8" y="1277.73" type="line" smooth="yes"/>
      <point x="667.328625" y="1298.630625"/>
      <point x="677.045852459" y="1321.40196721"/>
      <point x="656.013" y="1342.79" type="curve" smooth="yes"/>
      <point x="630.367" y="1368.86" type="line"/>
      <point x="614.027189728" y="1394.02410473"/>
      <point x="587.423599849" y="1407.77522315"/>
      <point x="566.778" y="1385.99" type="curve" smooth="yes"/>
      <point x="483.894" y="1302.31" type="line"/>
      <point x="379.366" y="1361.31"/>
      <point x="261.405" y="1372.01"/>
      <point x="161.455" y="1372.01" type="curve" smooth="yes"/>
      <point x="143.774" y="1372.01"/>
      <point x="132" y="1354.4"/>
      <point x="132" y="1309" type="curve" smooth="yes"/>
      <point x="132" y="1260" type="line" smooth="yes"/>
      <point x="132" y="1228.94"/>
      <point x="149.003" y="1216.23"/>
      <point x="158" y="1216" type="curve" smooth="yes"/>
      <point x="230.198" y="1214.17"/>
      <point x="296.015" y="1203.8"/>
      <point x="359.534" y="1176.74" type="curve"/>
      <point x="312.181" y="1128.93" type="line" smooth="yes"/>
      <point x="291.077371497" y="1107.63059247"/>
      <point x="286.458343423" y="1089.57366705"/>
      <point x="302.807" y="1064.42" type="curve"/>
      <point x="323.453" y="1043.35" type="line" smooth="yes"/>
      <point x="344.450233749" y="1021.9161785"/>
      <point x="361.045006292" y="1009.35164195"/>
      <point x="386.203" y="1025.67" type="curve"/>
      <point x="466.749" y="1103.88" type="line"/>
      <point x="500.337" y="1049.67"/>
      <point x="535" y="983.705"/>
      <point x="535" y="882" type="curve"/>
      <point x="478.985" y="909.399"/>
      <point x="448.548" y="920.062"/>
      <point x="390.016" y="920.062" type="curve" smooth="yes"/>
      <point x="207.472" y="920.062"/>
      <point x="82" y="756.435"/>
      <point x="82" y="449" type="curve" smooth="yes"/>
      <point x="82" y="71.6016"/>
      <point x="240.068" y="-21.2158"/>
    </contour>
    <contour>
      <point x="426" y="146" type="curve" smooth="yes"/>
      <point x="338" y="146"/>
      <point x="298" y="242"/>
      <point x="298" y="469" type="curve" smooth="yes"/>
      <point x="298" y="645.864"/>
      <point x="334.454" y="753.485"/>
      <point x="429.167" y="753.485" type="curve" smooth="yes"/>
      <point x="496.170258608" y="753.485"/>
      <point x="549.954" y="624.299056202"/>
      <point x="549.954" y="480.488" type="curve" smooth="yes"/>
      <point x="549.954" y="233.684800603"/>
      <point x="510.965483464" y="146.0"/>
    </contour>
  </outline>
</glyph>
<glyph name="thorn" format="1">
  <advance width="808"/>
  <unicode hex="00FE"/>
  <outline>
    <contour>
      <point x="134" y="-299" type="curve" smooth="yes"/>
      <point x="288" y="-299" type="line" smooth="yes"/>
      <point x="303" y="-299"/>
      <point x="315" y="-265"/>
      <point x="315" y="-222" type="curve" smooth="yes"/>
      <point x="315" y="100" type="line"/>
      <point x="353" y="22"/>
      <point x="415" y="-10"/>
      <point x="469" y="-10" type="curve" smooth="yes"/>
      <point x="599" y="-10"/>
      <point x="727" y="133"/>
      <point x="727" y="498" type="curve" smooth="yes"/>
      <point x="727" y="885"/>
      <point x="601" y="1017"/>
      <point x="484" y="1017" type="curve" smooth="yes"/>
      <point x="423" y="1017"/>
      <point x="369" y="986"/>
      <point x="332" y="904" type="curve" smooth="yes"/>
      <point x="330" y="900"/>
      <point x="326" y="896"/>
      <point x="322" y="896" type="curve" smooth="yes"/>
      <point x="319" y="896"/>
      <point x="315" y="901"/>
      <point x="315" y="915" type="curve" smooth="yes"/>
      <point x="315" y="1346" type="line" smooth="yes"/>
      <point x="315" y="1389"/>
      <point x="303" y="1423"/>
      <point x="289" y="1423" type="curve" smooth="yes"/>
      <point x="135" y="1423" type="line" smooth="yes"/>
      <point x="120" y="1423"/>
      <point x="108" y="1389"/>
      <point x="108" y="1346" type="curve" smooth="yes"/>
      <point x="108" y="-222" type="line" smooth="yes"/>
      <point x="108" y="-265"/>
      <point x="120" y="-299"/>
    </contour>
    <contour>
      <point x="423" y="165" type="curve" smooth="yes"/>
      <point x="356" y="165"/>
      <point x="315" y="315"/>
      <point x="315" y="514" type="curve" smooth="yes"/>
      <point x="315" y="709"/>
      <point x="349" y="842"/>
      <point x="416" y="842" type="curve" smooth="yes"/>
      <point x="480" y="842"/>
      <point x="511" y="700"/>
      <point x="511" y="514" type="curve" smooth="yes"/>
      <point x="511" y="287"/>
      <point x="487" y="165"/>
    </contour>
  </outline>
</glyph>
<glyph name="Dcroat" format="1">
  <advance width="963"/>
  <unicode hex="0110"/>
  <outline>
    <contour>
      <point x="397" y="212" type="curve" smooth="yes"/>
      <point x="390" y="212"/>
      <point x="384" y="217"/>
      <point x="384" y="237" type="curve" smooth="yes"/>
      <point x="384" y="654.2" type="line"/>
      <point x="483.196" y="654.2" type="line" smooth="yes"/>
      <point x="511.388" y="654.2"/>
      <point x="524.5" y="671.771"/>
      <point x="524.5" y="699.752" type="curve" smooth="yes"/>
      <point x="524.5" y="739.448" type="line" smooth="yes"/>
      <point x="524.5" y="767.43"/>
      <point x="511.388" y="785"/>
      <point x="483.196" y="785" type="curve" smooth="yes"/>
      <point x="384" y="785" type="line"/>
      <point x="384" y="1199" type="line" smooth="yes"/>
      <point x="384" y="1219"/>
      <point x="390" y="1226"/>
      <point x="397" y="1226" type="curve" smooth="yes"/>
      <point x="480" y="1226" type="line" smooth="yes"/>
      <point x="546" y="1226"/>
      <point x="615" y="1163"/>
      <point x="615" y="729" type="curve" smooth="yes"/>
      <point x="615" y="289"/>
      <point x="560" y="212"/>
      <point x="469" y="212" type="curve" smooth="yes"/>
      <point x="446.999945941" y="212.0"/>
      <point x="423.002054123" y="211.000959499"/>
    </contour>
    <contour>
      <point x="149" y="0" type="curve" smooth="yes"/>
      <point x="483" y="0" type="line" smooth="yes"/>
      <point x="722" y="0"/>
      <point x="877" y="18"/>
      <point x="877" y="733" type="curve" smooth="yes"/>
      <point x="877" y="1262"/>
      <point x="741" y="1438"/>
      <point x="524" y="1438" type="curve" smooth="yes"/>
      <point x="149" y="1438" type="line" smooth="yes"/>
      <point x="134" y="1438"/>
      <point x="122" y="1434"/>
      <point x="122" y="1391" type="curve" smooth="yes"/>
      <point x="122" y="785" type="line"/>
      <point x="40.6494" y="785" type="line" smooth="yes"/>
      <point x="12.457" y="785"/>
      <point x="0" y="767.43"/>
      <point x="0" y="739.448" type="curve" smooth="yes"/>
      <point x="0" y="699.752" type="line" smooth="yes"/>
      <point x="0" y="671.771"/>
      <point x="12.457" y="654.2"/>
      <point x="40.6494" y="654.2" type="curve" smooth="yes"/>
      <point x="122" y="654.2" type="line"/>
      <point x="122" y="47" type="line" smooth="yes"/>
      <point x="122" y="4"/>
      <point x="134" y="0"/>
    </contour>
  </outline>
</glyph>
<glyph name="Hbar" format="1">
  <advance width="999"/>
  <unicode hex="0126"/>
  <outline>
    <contour>
      <point x="149" y="0" type="curve" smooth="yes"/>
      <point x="360" y="0" type="line" smooth="yes"/>
      <point x="375" y="0"/>
      <point x="386" y="4"/>
      <point x="386" y="47" type="curve" smooth="yes"/>
      <point x="386" y="646" type="line" smooth="yes"/>
      <point x="386" y="666"/>
      <point x="392" y="669"/>
      <point x="399" y="669" type="curve" smooth="yes"/>
      <point x="601" y="669" type="line" smooth="yes"/>
      <point x="608" y="669"/>
      <point x="614" y="666"/>
      <point x="614" y="646" type="curve" smooth="yes"/>
      <point x="614" y="47" type="line" smooth="yes"/>
      <point x="614" y="4"/>
      <point x="626" y="0"/>
      <point x="641" y="0" type="curve" smooth="yes"/>
      <point x="851" y="0" type="line" smooth="yes"/>
      <point x="866" y="0"/>
      <point x="877" y="4"/>
      <point x="877" y="47" type="curve" smooth="yes"/>
      <point x="877" y="1164.2" type="line"/>
      <point x="937.696" y="1164.2" type="line" smooth="yes"/>
      <point x="965.888" y="1164.2"/>
      <point x="979" y="1181.77"/>
      <point x="979" y="1209.75" type="curve" smooth="yes"/>
      <point x="979" y="1249.45" type="line" smooth="yes"/>
      <point x="979" y="1277.43"/>
      <point x="965.888" y="1295"/>
      <point x="937.696" y="1295" type="curve" smooth="yes"/>
      <point x="877" y="1295" type="line"/>
      <point x="877" y="1391" type="line" smooth="yes"/>
      <point x="877" y="1434"/>
      <point x="866" y="1438"/>
      <point x="851" y="1438" type="curve" smooth="yes"/>
      <point x="641" y="1438" type="line" smooth="yes"/>
      <point x="626" y="1438"/>
      <point x="615" y="1434"/>
      <point x="615" y="1391" type="curve" smooth="yes"/>
      <point x="615" y="1295" type="line"/>
      <point x="384" y="1295" type="line"/>
      <point x="384" y="1391" type="line" smooth="yes"/>
      <point x="384" y="1434"/>
      <point x="373" y="1438"/>
      <point x="358" y="1438" type="curve" smooth="yes"/>
      <point x="149" y="1438" type="line" smooth="yes"/>
      <point x="134" y="1438"/>
      <point x="122" y="1434"/>
      <point x="122" y="1391" type="curve" smooth="yes"/>
      <point x="122" y="1295" type="line"/>
      <point x="60.6494" y="1295" type="line" smooth="yes"/>
      <point x="32.457" y="1295"/>
      <point x="20" y="1277.43"/>
      <point x="20" y="1249.45" type="curve" smooth="yes"/>
      <point x="20" y="1209.75" type="line" smooth="yes"/>
      <point x="20" y="1181.77"/>
      <point x="32.457" y="1164.2"/>
      <point x="60.6494" y="1164.2" type="curve" smooth="yes"/>
      <point x="122" y="1164.2" type="line"/>
      <point x="122" y="47" type="line" smooth="yes"/>
      <point x="122" y="4"/>
      <point x="134" y="0"/>
    </contour>
    <contour>
      <point x="397" y="874" type="line" smooth="yes"/>
      <point x="390" y="874"/>
      <point x="384" y="881"/>
      <point x="384" y="901" type="curve" smooth="yes"/>
      <point x="384" y="1164.2" type="line"/>
      <point x="615" y="1164.2" type="line"/>
      <point x="615" y="901" type="line" smooth="yes"/>
      <point x="615" y="881"/>
      <point x="609" y="874"/>
      <point x="602" y="874" type="curve" smooth="yes"/>
    </contour>
  </outline>
</glyph>
<glyph name="dotlessi" format="1">
  <advance width="407"/>
  <unicode hex="0131"/>
  <outline>
    <contour>
      <point x="135" y="0" type="curve" smooth="yes"/>
      <point x="290" y="0" type="line" smooth="yes"/>
      <point x="304" y="0"/>
      <point x="316" y="34"/>
      <point x="316" y="77" type="curve" smooth="yes"/>
      <point x="316" y="929" type="line" smooth="yes"/>
      <point x="316" y="972"/>
      <point x="304" y="1006"/>
      <point x="290" y="1006" type="curve" smooth="yes"/>
      <point x="135" y="1006" type="line" smooth="yes"/>
      <point x="120" y="1006"/>
      <point x="109" y="972"/>
      <point x="109" y="929" type="curve" smooth="yes"/>
      <point x="109" y="77" type="line" smooth="yes"/>
      <point x="109" y="34"/>
      <point x="120" y="0"/>
    </contour>
    <contour>
      <point x="204" y="1006" type="move" name="top"/>
    </contour>
    <contour>
      <point x="366" y="10" type="move" name="ogonek"/>
    </contour>
  </outline>
</glyph>
<glyph name="Lslash" format="1">
  <advance width="712"/>
  <unicode hex="0141"/>
  <outline>
    <contour>
      <point x="654" y="0" type="line" smooth="yes"/>
      <point x="669" y="0"/>
      <point x="681" y="4"/>
      <point x="681" y="47" type="curve" smooth="yes"/>
      <point x="681" y="165" type="line" smooth="yes"/>
      <point x="681" y="208"/>
      <point x="669" y="212"/>
      <point x="654" y="212" type="curve" smooth="yes"/>
      <point x="397" y="212" type="line" smooth="yes"/>
      <point x="390" y="212"/>
      <point x="384" y="216"/>
      <point x="384" y="236" type="curve" smooth="yes"/>
      <point x="384" y="671" type="line"/>
      <point x="548" y="710" type="line" smooth="yes"/>
      <point x="563" y="713"/>
      <point x="575" y="714"/>
      <point x="575" y="757" type="curve" smooth="yes"/>
      <point x="575" y="883" type="line" smooth="yes"/>
      <point x="575" y="926"/>
      <point x="563" y="933"/>
      <point x="548" y="930" type="curve" smooth="yes"/>
      <point x="384" y="891" type="line"/>
      <point x="384" y="1391" type="line" smooth="yes"/>
      <point x="384" y="1434"/>
      <point x="372" y="1438"/>
      <point x="358" y="1438" type="curve" smooth="yes"/>
      <point x="149" y="1438" type="line" smooth="yes"/>
      <point x="134" y="1438"/>
      <point x="122" y="1434"/>
      <point x="122" y="1391" type="curve" smooth="yes"/>
      <point x="122" y="828" type="line"/>
      <point x="46" y="810" type="line" smooth="yes"/>
      <point x="31" y="807"/>
      <point x="19" y="806"/>
      <point x="19" y="763" type="curve" smooth="yes"/>
      <point x="19" y="637" type="line" smooth="yes"/>
      <point x="19" y="594"/>
      <point x="31" y="587"/>
      <point x="46" y="590" type="curve" smooth="yes"/>
      <point x="122" y="608" type="line"/>
      <point x="122" y="47" type="line" smooth="yes"/>
      <point x="122" y="4"/>
      <point x="134" y="0"/>
      <point x="149" y="0" type="curve" smooth="yes"/>
    </contour>
  </outline>
</glyph>
<glyph name="circumflex" format="1">
  <advance width="327"/>
  <unicode hex="02C6"/>
  <outline>
    <contour>
      <point x="62" y="1217" type="line" smooth="yes"/>
      <point x="79" y="1217"/>
      <point x="93" y="1240"/>
      <point x="108" y="1275" type="curve"/>
      <point x="149" y="1401" type="line" smooth="yes"/>
      <point x="153" y="1414"/>
      <point x="157" y="1421"/>
      <point x="160" y="1421" type="curve" smooth="yes"/>
      <point x="164" y="1421"/>
      <point x="168" y="1414"/>
      <point x="172" y="1401" type="curve" smooth="yes"/>
      <point x="213" y="1275" type="line"/>
      <point x="228" y="1240"/>
      <point x="242" y="1217"/>
      <point x="261" y="1217" type="curve" smooth="yes"/>
      <point x="289" y="1217" type="line" smooth="yes"/>
      <point x="321.210526316" y="1217.0"/>
      <point x="312.8" y="1265.26666667"/>
      <point x="306" y="1297" type="curve"/>
      <point x="227" y="1527" type="line"/>
      <point x="213" y="1577"/>
      <point x="194" y="1607"/>
      <point x="176" y="1607" type="curve" smooth="yes"/>
      <point x="145" y="1607" type="line" smooth="yes"/>
      <point x="128" y="1607"/>
      <point x="109" y="1577"/>
      <point x="95" y="1527" type="curve"/>
      <point x="15" y="1297" type="line"/>
      <point x="7.5" y="1267.0"/>
      <point x="3.0" y="1217.0"/>
      <point x="33" y="1217" type="curve" smooth="yes"/>
    </contour>
    <contour>
      <point x="160.5" y="1006" type="move" name="_top"/>
    </contour>
  </outline>
</glyph>
<glyph name="caron" format="1">
  <advance width="327"/>
  <unicode hex="02C7"/>
  <outline>
    <contour>
      <point x="145" y="1217" type="curve" smooth="yes"/>
      <point x="176" y="1217" type="line" smooth="yes"/>
      <point x="193" y="1217"/>
      <point x="212" y="1247"/>
      <point x="226" y="1297" type="curve"/>
      <point x="306" y="1527" type="line"/>
      <point x="313.5" y="1557.0"/>
      <point x="318.0" y="1607.0"/>
      <point x="288" y="1607" type="curve" smooth="yes"/>
      <point x="259" y="1607" type="line" smooth="yes"/>
      <point x="242" y="1607"/>
      <point x="228" y="1584"/>
      <point x="213" y="1549" type="curve"/>
      <point x="172" y="1423" type="line" smooth="yes"/>
      <point x="168" y="1410"/>
      <point x="164" y="1403"/>
      <point x="161" y="1403" type="curve" smooth="yes"/>
      <point x="157" y="1403"/>
      <point x="153" y="1410"/>
      <point x="149" y="1423" type="curve" smooth="yes"/>
      <point x="108" y="1549" type="line"/>
      <point x="93" y="1584"/>
      <point x="79" y="1607"/>
      <point x="60" y="1607" type="curve" smooth="yes"/>
      <point x="32" y="1607" type="line" smooth="yes"/>
      <point x="-0.210526315789" y="1607.0"/>
      <point x="8.2" y="1558.73333333"/>
      <point x="15" y="1527" type="curve"/>
      <point x="94" y="1297" type="line"/>
      <point x="108" y="1247"/>
      <point x="127" y="1217"/>
    </contour>
    <contour>
      <point x="160.5" y="1006" type="move" name="_top"/>
    </contour>
  </outline>
</glyph>
<glyph name="tilde" format="1">
  <advance width="1051"/>
  <unicode hex="02DC"/>
  <outline>
    <contour>
      <point x="695" y="788" type="curve" smooth="yes"/>
      <point x="714" y="788"/>
      <point x="736" y="807"/>
      <point x="736" y="828" type="curve" smooth="yes"/>
      <point x="736" y="842"/>
      <point x="723" y="866"/>
      <point x="709" y="885" type="curve" smooth="yes"/>
      <point x="678" y="928"/>
      <point x="645" y="983"/>
      <point x="585" y="983" type="curve" smooth="yes"/>
      <point x="499" y="983"/>
      <point x="414" y="896"/>
      <point x="358" y="896" type="curve" smooth="yes"/>
      <point x="338" y="896"/>
      <point x="327" y="916"/>
      <point x="316" y="931" type="curve" smooth="yes"/>
      <point x="304" y="947"/>
      <point x="289" y="968"/>
      <point x="264" y="968" type="curve" smooth="yes"/>
      <point x="245" y="968"/>
      <point x="223" y="949"/>
      <point x="223" y="928" type="curve" smooth="yes"/>
      <point x="223" y="914"/>
      <point x="236" y="890"/>
      <point x="250" y="871" type="curve" smooth="yes"/>
      <point x="281" y="828"/>
      <point x="314" y="773"/>
      <point x="374" y="773" type="curve"/>
      <point x="486" y="773"/>
      <point x="547" y="860"/>
      <point x="601" y="860" type="curve" smooth="yes"/>
      <point x="621" y="860"/>
      <point x="632" y="840"/>
      <point x="643" y="825" type="curve" smooth="yes"/>
      <point x="655" y="809"/>
      <point x="670" y="788"/>
    </contour>
    <contour>
      <point x="488" y="1006" type="move" name="_top"/>
    </contour>
  </outline>
</glyph>
<glyph name="Delta" format="1">
  <advance width="866"/>
  <unicode hex="0394"/>
  <outline>
    <contour>
      <point x="77.5" y="250" type="curve"/>
      <point x="787.5" y="250" type="line"/>
      <point x="797.5" y="250"/>
      <point x="804.5" y="252"/>
      <point x="804.5" y="277" type="curve" smooth="yes"/>
      <point x="804.5" y="284"/>
      <point x="803.795" y="312.049"/>
      <point x="802.5" y="319" type="curve" smooth="yes"/>
      <point x="602.5" y="1393" type="line" smooth="yes"/>
      <point x="595.625" y="1434.02"/>
      <point x="581.5" y="1438"/>
      <point x="565.5" y="1438" type="curve" smooth="yes"/>
      <point x="297.5" y="1438" type="line" smooth="yes"/>
      <point x="281.5" y="1438"/>
      <point x="268.041" y="1433.9"/>
      <point x="260.5" y="1393" type="curve" smooth="yes"/>
      <point x="62.5" y="319" type="line"/>
      <point x="62.5" y="312"/>
      <point x="61.5" y="284"/>
      <point x="61.5" y="277" type="curve" smooth="yes"/>
      <point x="61.5" y="252"/>
      <point x="68.5" y="250"/>
    </contour>
    <contour>
      <point x="351.5" y="456" type="line" smooth="yes"/>
      <point x="336.5" y="456"/>
      <point x="333.5" y="468"/>
      <point x="333.5" y="481" type="curve" smooth="yes"/>
      <point x="333.5" y="484"/>
      <point x="333.5" y="487"/>
      <point x="334.5" y="490" type="curve" smooth="yes"/>
      <point x="425.5" y="1157" type="line" smooth="yes"/>
      <point x="426.5" y="1163"/>
      <point x="428.5" y="1166"/>
      <point x="430.5" y="1166" type="curve" smooth="yes"/>
      <point x="432.5" y="1166"/>
      <point x="433.5" y="1163"/>
      <point x="434.5" y="1156" type="curve" smooth="yes"/>
      <point x="512.5" y="491" type="line" smooth="yes"/>
      <point x="513.5" y="488"/>
      <point x="513.5" y="484"/>
      <point x="513.5" y="481" type="curve" smooth="yes"/>
      <point x="513.5" y="468"/>
      <point x="510.5" y="456"/>
      <point x="504.5" y="456" type="curve" smooth="yes"/>
    </contour>
  </outline>
</glyph>
<glyph name="mu" format="1">
  <advance width="818"/>
  <unicode hex="03BC"/>
  <outline>
    <contour>
      <point x="353" y="-10" type="curve" smooth="yes"/>
      <point x="437" y="-10"/>
      <point x="533" y="59"/>
      <point x="566" y="192" type="curve" smooth="yes"/>
      <point x="568" y="199"/>
      <point x="570" y="203"/>
      <point x="573" y="203" type="curve" smooth="yes"/>
      <point x="575" y="203"/>
      <point x="579" y="198"/>
      <point x="581" y="190" type="curve" smooth="yes"/>
      <point x="611" y="44" type="line" smooth="yes"/>
      <point x="620" y="5"/>
      <point x="636" y="0"/>
      <point x="652" y="0" type="curve" smooth="yes"/>
      <point x="689" y="0" type="line" smooth="yes"/>
      <point x="704" y="0"/>
      <point x="716" y="14"/>
      <point x="716" y="57" type="curve" smooth="yes"/>
      <point x="716" y="959" type="line" smooth="yes"/>
      <point x="716" y="1002"/>
      <point x="704" y="1006"/>
      <point x="689" y="1006" type="curve" smooth="yes"/>
      <point x="534" y="1006" type="line" smooth="yes"/>
      <point x="519" y="1006"/>
      <point x="507" y="1002"/>
      <point x="507" y="959" type="curve" smooth="yes"/>
      <point x="507" y="407" type="line" smooth="yes"/>
      <point x="507" y="274"/>
      <point x="475" y="165"/>
      <point x="408" y="165" type="curve" smooth="yes"/>
      <point x="344" y="165"/>
      <point x="311" y="228"/>
      <point x="311" y="359" type="curve" smooth="yes"/>
      <point x="311" y="959" type="line" smooth="yes"/>
      <point x="311" y="1002"/>
      <point x="299" y="1006"/>
      <point x="285" y="1006" type="curve" smooth="yes"/>
      <point x="121" y="1006" type="line" smooth="yes"/>
      <point x="105" y="1006"/>
      <point x="94" y="1002"/>
      <point x="94" y="959" type="curve" smooth="yes"/>
      <point x="94" y="372" type="line" smooth="yes"/>
      <point x="94" y="67"/>
      <point x="223" y="-10"/>
    </contour>
  </outline>
</glyph>
<glyph name="endash" format="1">
  <advance width="1024"/>
  <unicode hex="2013"/>
  <outline>
    <contour>
      <point x="100" y="526" type="line"/>
      <point x="920" y="526" type="line"/>
      <point x="920" y="718" type="line"/>
      <point x="100" y="718" type="line"/>
    </contour>
  </outline>
</glyph>
<glyph name="emdash" format="1">
  <advance width="2048"/>
  <unicode hex="2014"/>
  <outline>
    <contour>
      <point x="100" y="526" type="line"/>
      <point x="1944" y="526" type="line"/>
      <point x="1944" y="718" type="line"/>
      <point x="100" y="718" type="line"/>
    </contour>
  </outline>
</glyph>
<glyph name="quoteright" format="1">
  <advance width="360"/>
  <unicode hex="2019"/>
  <outline>
    <contour>
      <point x="114" y="815" type="curve" smooth="yes"/>
      <point x="162" y="838"/>
      <point x="283" y="945"/>
      <point x="283" y="1182" type="curve" smooth="yes"/>
      <point x="283" y="1403" type="line" smooth="yes"/>
      <point x="283" y="1446"/>
      <point x="271" y="1460"/>
      <point x="257" y="1460" type="curve" smooth="yes"/>
      <point x="109" y="1460" type="line" smooth="yes"/>
      <point x="94" y="1460"/>
      <point x="88" y="1446"/>
      <point x="88" y="1403" type="curve" smooth="yes"/>
      <point x="88" y="1217" type="line" smooth="yes"/>
      <point x="88" y="1179"/>
      <point x="95" y="1157"/>
      <point x="109" y="1157" type="curve" smooth="yes"/>
      <point x="160" y="1157" type="line" smooth="yes"/>
      <point x="165" y="1157"/>
      <point x="166" y="1146"/>
      <point x="166" y="1130" type="curve" smooth="yes"/>
      <point x="166" y="1066"/>
      <point x="147" y="991"/>
      <point x="112" y="956" type="curve" smooth="yes"/>
      <point x="90" y="934"/>
      <point x="88" y="935"/>
      <point x="88" y="881" type="curve" smooth="yes"/>
      <point x="88" y="860" type="line" smooth="yes"/>
      <point x="88.0" y="823.997863606"/>
      <point x="102.006603314" y="809.003301657"/>
    </contour>
  </outline>
</glyph>
<glyph name="quotesinglbase" format="1">
  <advance width="355"/>
  <unicode hex="201A"/>
  <outline>
    <contour>
      <point x="162.6" y="-411" type="curve" smooth="yes"/>
      <point x="193.6" y="-411" type="line" smooth="yes"/>
      <point x="208.6" y="-411"/>
      <point x="216.6" y="-376"/>
      <point x="219.6" y="-334" type="curve" smooth="yes"/>
      <point x="265.6" y="151" type="line" smooth="yes"/>
      <point x="265.921" y="154.392"/>
      <point x="265.835" y="157.745"/>
      <point x="265.835" y="161.021" type="curve" smooth="yes"/>
      <point x="265.835" y="199.165"/>
      <point x="255.413" y="228"/>
      <point x="241.6" y="228" type="curve" smooth="yes"/>
      <point x="114.6" y="228" type="line" smooth="yes"/>
      <point x="101.068" y="228"/>
      <point x="89.165" y="200.334"/>
      <point x="89.165" y="163.353" type="curve" smooth="yes"/>
      <point x="89.165" y="159.337"/>
      <point x="89.2012" y="155.205"/>
      <point x="89.5996" y="151" type="curve" smooth="yes"/>
      <point x="135.6" y="-334" type="line" smooth="yes"/>
      <point x="137.6" y="-376"/>
      <point x="147.6" y="-411"/>
    </contour>
  </outline>
</glyph>
<glyph name="quotedblright" format="1">
  <advance width="667"/>
  <unicode hex="201D"/>
  <outline>
    <contour>
      <point x="114" y="815" type="curve" smooth="yes"/>
      <point x="162" y="838"/>
      <point x="283" y="945"/>
      <point x="283" y="1182" type="curve" smooth="yes"/>
      <point x="283" y="1403" type="line" smooth="yes"/>
      <point x="283" y="1446"/>
      <point x="271" y="1460"/>
      <point x="257" y="1460" type="curve" smooth="yes"/>
      <point x="109" y="1460" type="line" smooth="yes"/>
      <point x="94" y="1460"/>
      <point x="88" y="1446"/>
      <point x="88" y="1403" type="curve" smooth="yes"/>
      <point x="88" y="1217" type="line" smooth="yes"/>
      <point x="88" y="1179"/>
      <point x="95" y="1157"/>
      <point x="109" y="1157" type="curve" smooth="yes"/>
      <point x="160" y="1157" type="line" smooth="yes"/>
      <point x="165" y="1157"/>
      <point x="166" y="1146"/>
      <point x="166" y="1130" type="curve" smooth="yes"/>
      <point x="166" y="1066"/>
      <point x="147" y="991"/>
      <point x="112" y="956" type="curve" smooth="yes"/>
      <point x="90" y="934"/>
      <point x="88" y="935"/>
      <point x="88" y="881" type="curve" smooth="yes"/>
      <point x="88" y="860" type="line" smooth="yes"/>
      <point x="88.0" y="823.997863606"/>
      <point x="102.006603314" y="809.003301657"/>
    </contour>
    <contour>
      <point x="412.5" y="815" type="curve" smooth="yes"/>
      <point x="460.5" y="838"/>
      <point x="581.5" y="945"/>
      <point x="581.5" y="1182" type="curve" smooth="yes"/>
      <point x="581.5" y="1403" type="line" smooth="yes"/>
      <point x="581.5" y="1446"/>
      <point x="569.5" y="1460"/>
      <point x="555.5" y="1460" type="curve" smooth="yes"/>
      <point x="407.5" y="1460" type="line" smooth="yes"/>
      <point x="392.5" y="1460"/>
      <point x="386.5" y="1446"/>
      <point x="386.5" y="1403" type="curve" smooth="yes"/>
      <point x="386.5" y="1217" type="line" smooth="yes"/>
      <point x="386.5" y="1179"/>
      <point x="393.5" y="1157"/>
      <point x="407.5" y="1157" type="curve" smooth="yes"/>
      <point x="458.5" y="1157" type="line" smooth="yes"/>
      <point x="463.5" y="1157"/>
      <point x="464.5" y="1146"/>
      <point x="464.5" y="1130" type="curve" smooth="yes"/>
      <point x="464.5" y="1066"/>
      <point x="445.5" y="991"/>
      <point x="410.5" y="956" type="curve" smooth="yes"/>
      <point x="388.5" y="934"/>
      <point x="386.5" y="935"/>
      <point x="386.5" y="881" type="curve" smooth="yes"/>
      <point x="386.5" y="860" type="line" smooth="yes"/>
      <point x="386.5" y="824.000656694"/>
      <point x="400.501020011" y="809.000510006"/>
    </contour>
  </outline>
</glyph>
<glyph name="quotedblbase" format="1">
  <advance width="634"/>
  <unicode hex="201E"/>
  <outline>
    <contour>
      <point x="155.927" y="-411" type="curve" smooth="yes"/>
      <point x="186.927" y="-411" type="line" smooth="yes"/>
      <point x="201.927" y="-411"/>
      <point x="209.927" y="-376"/>
      <point x="212.927" y="-334" type="curve" smooth="yes"/>
      <point x="258.927" y="151" type="line" smooth="yes"/>
      <point x="259.248" y="154.392"/>
      <point x="259.162" y="157.745"/>
      <point x="259.162" y="161.021" type="curve" smooth="yes"/>
      <point x="259.162" y="199.165"/>
      <point x="248.74" y="228"/>
      <point x="234.927" y="228" type="curve" smooth="yes"/>
      <point x="107.927" y="228" type="line" smooth="yes"/>
      <point x="94.3955" y="228"/>
      <point x="82.4922" y="200.334"/>
      <point x="82.4922" y="163.353" type="curve" smooth="yes"/>
      <point x="82.4922" y="159.337"/>
      <point x="82.5283" y="155.205"/>
      <point x="82.9268" y="151" type="curve" smooth="yes"/>
      <point x="128.927" y="-334" type="line" smooth="yes"/>
      <point x="130.927" y="-376"/>
      <point x="140.927" y="-411"/>
    </contour>
    <contour>
      <point x="448.262" y="-411" type="curve" smooth="yes"/>
      <point x="479.262" y="-411" type="line" smooth="yes"/>
      <point x="494.262" y="-411"/>
      <point x="502.262" y="-376"/>
      <point x="505.262" y="-334" type="curve" smooth="yes"/>
      <point x="551.262" y="151" type="line" smooth="yes"/>
      <point x="551.583" y="154.392"/>
      <point x="551.497" y="157.745"/>
      <point x="551.497" y="161.021" type="curve" smooth="yes"/>
      <point x="551.497" y="199.165"/>
      <point x="541.075" y="228"/>
      <point x="527.262" y="228" type="curve" smooth="yes"/>
      <point x="400.262" y="228" type="line" smooth="yes"/>
      <point x="386.73" y="228"/>
      <point x="374.827" y="200.334"/>
      <point x="374.827" y="163.353" type="curve" smooth="yes"/>
      <point x="374.827" y="159.337"/>
      <point x="374.863" y="155.205"/>
      <point x="375.262" y="151" type="curve" smooth="yes"/>
      <point x="421.262" y="-334" type="line" smooth="yes"/>
      <point x="423.262" y="-376"/>
      <point x="433.262" y="-411"/>
    </contour>
  </outline>
</glyph>
<glyph name="dagger" format="1">
  <advance width="408"/>
  <unicode hex="2020"/>
  <outline>
    <contour>
      <point x="137" y="0" type="curve" smooth="yes"/>
      <point x="292" y="0" type="line" smooth="yes"/>
      <point x="306" y="0"/>
      <point x="318" y="4"/>
      <point x="318" y="47" type="curve" smooth="yes"/>
      <point x="318" y="850" type="line"/>
      <point x="566" y="850" type="line" smooth="yes"/>
      <point x="609" y="850"/>
      <point x="624" y="862"/>
      <point x="624" y="876" type="curve" smooth="yes"/>
      <point x="624" y="1030" type="line" smooth="yes"/>
      <point x="624" y="1045"/>
      <point x="609" y="1058"/>
      <point x="566" y="1058" type="curve" smooth="yes"/>
      <point x="318" y="1058" type="line"/>
      <point x="318" y="1418" type="line" smooth="yes"/>
      <point x="318" y="1461"/>
      <point x="306" y="1475"/>
      <point x="292" y="1475" type="curve" smooth="yes"/>
      <point x="137" y="1475" type="line" smooth="yes"/>
      <point x="122" y="1475"/>
      <point x="110" y="1461"/>
      <point x="110" y="1418" type="curve" smooth="yes"/>
      <point x="110" y="1058" type="line"/>
      <point x="-168" y="1058" type="line" smooth="yes"/>
      <point x="-211" y="1058"/>
      <point x="-216" y="1045"/>
      <point x="-216" y="1030" type="curve" smooth="yes"/>
      <point x="-216" y="876" type="line" smooth="yes"/>
      <point x="-216" y="862"/>
      <point x="-211" y="850"/>
      <point x="-168" y="850" type="curve" smooth="yes"/>
      <point x="110" y="850" type="line"/>
      <point x="110" y="47" type="line" smooth="yes"/>
      <point x="110" y="4"/>
      <point x="122" y="0"/>
    </contour>
  </outline>
</glyph>
<glyph name="daggerdbl" format="1">
  <advance width="408"/>
  <unicode hex="2021"/>
  <outline>
    <contour>
      <point x="137" y="0" type="curve" smooth="yes"/>
      <point x="292" y="0" type="line" smooth="yes"/>
      <point x="306" y="0"/>
      <point x="318" y="4"/>
      <point x="318" y="47" type="curve" smooth="yes"/>
      <point x="318" y="330" type="line"/>
      <point x="566" y="330" type="line" smooth="yes"/>
      <point x="609" y="330"/>
      <point x="624" y="342"/>
      <point x="624" y="356" type="curve" smooth="yes"/>
      <point x="624" y="510" type="line" smooth="yes"/>
      <point x="624" y="525"/>
      <point x="609" y="538"/>
      <point x="566" y="538" type="curve" smooth="yes"/>
      <point x="318" y="538" type="line"/>
      <point x="318" y="906" type="line"/>
      <point x="566" y="906" type="line" smooth="yes"/>
      <point x="609" y="906"/>
      <point x="624" y="918"/>
      <point x="624" y="932" type="curve" smooth="yes"/>
      <point x="624" y="1086" type="line" smooth="yes"/>
      <point x="624" y="1101"/>
      <point x="609" y="1114"/>
      <point x="566" y="1114" type="curve" smooth="yes"/>
      <point x="318" y="1114" type="line"/>
      <point x="318" y="1418" type="line" smooth="yes"/>
      <point x="318" y="1461"/>
      <point x="306" y="1475"/>
      <point x="292" y="1475" type="curve" smooth="yes"/>
      <point x="137" y="1475" type="line" smooth="yes"/>
      <point x="122" y="1475"/>
      <point x="110" y="1461"/>
      <point x="110" y="1418" type="curve" smooth="yes"/>
      <point x="110" y="1114" type="line"/>
      <point x="-168" y="1114" type="line" smooth="yes"/>
      <point x="-211" y="1114"/>
      <point x="-216" y="1101"/>
      <point x="-216" y="1086" type="curve" smooth="yes"/>
      <point x="-216" y="932" type="line" smooth="yes"/>
      <point x="-216" y="918"/>
      <point x="-211" y="906"/>
      <point x="-168" y="906" type="curve" smooth="yes"/>
      <point x="110" y="906" type="line"/>
      <point x="110" y="538" type="line"/>
      <point x="-168" y="538" type="line" smooth="yes"/>
      <point x="-211" y="538"/>
      <point x="-216" y="525"/>
      <point x="-216" y="510" type="curve" smooth="yes"/>
      <point x="-216" y="356" type="line" smooth="yes"/>
      <point x="-216" y="342"/>
      <point x="-211" y="330"/>
      <point x="-168" y="330" type="curve" smooth="yes"/>
      <point x="110" y="330" type="line"/>
      <point x="110" y="47" type="line" smooth="yes"/>
      <point x="110" y="4"/>
      <point x="122" y="0"/>
    </contour>
  </outline>
</glyph>
<glyph name="guilsinglright" format="1">
  <advance width="576"/>
  <unicode hex="203A"/>
  <outline>
    <contour>
      <point x="127" y="200" type="curve" smooth="yes"/>
      <point x="129" y="200"/>
      <point x="130.439" y="201.49"/>
      <point x="134" y="205" type="curve" smooth="yes"/>
      <point x="411" y="478" type="line" smooth="yes"/>
      <point x="430.014" y="495.847"/>
      <point x="434" y="544"/>
      <point x="434" y="591" type="curve" smooth="yes"/>
      <point x="434" y="755" type="line" smooth="yes"/>
      <point x="434" y="802"/>
      <point x="430.209" y="850.333"/>
      <point x="412" y="869" type="curve" smooth="yes"/>
      <point x="134" y="1154" type="line" smooth="yes"/>
      <point x="131" y="1158"/>
      <point x="128" y="1160"/>
      <point x="126" y="1160" type="curve" smooth="yes"/>
      <point x="119" y="1160"/>
      <point x="111" y="1141"/>
      <point x="111" y="1114" type="curve" smooth="yes"/>
      <point x="111" y="954" type="line" smooth="yes"/>
      <point x="111" y="908"/>
      <point x="120" y="864"/>
      <point x="135" y="844" type="curve" smooth="yes"/>
      <point x="307" y="686" type="line" smooth="yes"/>
      <point x="310.124" y="683.131"/>
      <point x="311" y="676"/>
      <point x="311" y="670" type="curve" smooth="yes"/>
      <point x="311" y="664"/>
      <point x="311.32" y="656.994"/>
      <point x="308" y="654" type="curve" smooth="yes"/>
      <point x="135" y="498" type="line" smooth="yes"/>
      <point x="121" y="479"/>
      <point x="111" y="435"/>
      <point x="111" y="389" type="curve" smooth="yes"/>
      <point x="111" y="246" type="line" smooth="yes"/>
      <point x="111" y="219"/>
      <point x="119" y="200"/>
    </contour>
  </outline>
</glyph>
<glyph name="fraction" format="1">
  <advance width="606"/>
  <unicode hex="2044"/>
  <outline>
    <contour>
      <point x="92" y="-205" type="curve" smooth="yes"/>
      <point x="206" y="-207" type="line" smooth="yes"/>
      <point x="213" y="-207"/>
      <point x="221" y="-194"/>
      <point x="224" y="-174" type="curve" smooth="yes"/>
      <point x="525" y="1614" type="line" smooth="yes"/>
      <point x="527.994467787" y="1628.99369748"/>
      <point x="524.002076199" y="1647.0"/>
      <point x="518" y="1647" type="curve" smooth="yes"/>
      <point x="405" y="1647" type="line" smooth="yes"/>
      <point x="398" y="1647"/>
      <point x="390" y="1634"/>
      <point x="387" y="1614" type="curve" smooth="yes"/>
      <point x="85" y="-172" type="line" smooth="yes"/>
      <point x="82.9999423423" y="-187.000432432"/>
      <point x="87.0000316832" y="-205.0"/>
    </contour>
  </outline>
</glyph>
<glyph name="Euro" format="1">
  <advance width="747"/>
  <unicode hex="20AC"/>
  <outline>
    <contour>
      <point x="527" y="-20" type="curve" smooth="yes"/>
      <point x="591" y="-20"/>
      <point x="653" y="-10"/>
      <point x="690" y="5" type="curve"/>
      <point x="695.092" y="7.04911"/>
      <point x="699" y="18.809"/>
      <point x="699" y="33" type="curve" smooth="yes"/>
      <point x="699" y="183" type="line" smooth="yes"/>
      <point x="699" y="197.423"/>
      <point x="695.067" y="209.326"/>
      <point x="690" y="211" type="curve"/>
      <point x="654" y="199"/>
      <point x="625" y="193"/>
      <point x="567" y="193" type="curve" smooth="yes"/>
      <point x="453.223" y="193"/>
      <point x="380.467" y="232.068"/>
      <point x="356.615" y="492" type="curve"/>
      <point x="518" y="492" type="line" smooth="yes"/>
      <point x="532" y="492"/>
      <point x="544" y="496"/>
      <point x="544" y="539" type="curve" smooth="yes"/>
      <point x="544" y="600" type="line" smooth="yes"/>
      <point x="544" y="643"/>
      <point x="532" y="647"/>
      <point x="518" y="647" type="curve" smooth="yes"/>
      <point x="348.68" y="647" type="line"/>
      <point x="348.227" y="669.852"/>
      <point x="348" y="693.834"/>
      <point x="348" y="719" type="curve" smooth="yes"/>
      <point x="348" y="739.798"/>
      <point x="348.189" y="759.788"/>
      <point x="348.563" y="779" type="curve"/>
      <point x="518" y="779" type="line" smooth="yes"/>
      <point x="532" y="779"/>
      <point x="544" y="783"/>
      <point x="544" y="826" type="curve" smooth="yes"/>
      <point x="544" y="887" type="line" smooth="yes"/>
      <point x="544" y="930"/>
      <point x="532" y="934"/>
      <point x="518" y="934" type="curve" smooth="yes"/>
      <point x="357.013" y="934" type="line"/>
      <point x="383.428" y="1201.25"/>
      <point x="465.854" y="1244"/>
      <point x="577" y="1244" type="curve" smooth="yes"/>
      <point x="637" y="1244"/>
      <point x="689" y="1230"/>
      <point x="693" y="1230" type="curve" smooth="yes"/>
      <point x="697" y="1230"/>
      <point x="700" y="1231"/>
      <point x="700" y="1246" type="curve" smooth="yes"/>
      <point x="700" y="1408" type="line"/>
      <point x="669" y="1452.68"/>
      <point x="574.415" y="1460"/>
      <point x="529" y="1460" type="curve" smooth="yes"/>
      <point x="322.347" y="1460"/>
      <point x="136.574" y="1398.91"/>
      <point x="94.762" y="934" type="curve"/>
      <point x="36" y="934" type="line" smooth="yes"/>
      <point x="21" y="934"/>
      <point x="9" y="930"/>
      <point x="9" y="887" type="curve" smooth="yes"/>
      <point x="9" y="826" type="line" smooth="yes"/>
      <point x="9" y="783"/>
      <point x="21" y="779"/>
      <point x="36" y="779" type="curve" smooth="yes"/>
      <point x="86.5963" y="779" type="line"/>
      <point x="86.2006" y="759.552"/>
      <point x="86" y="739.557"/>
      <point x="86" y="719" type="curve" smooth="yes"/>
      <point x="86" y="694.187"/>
      <point x="86.2745" y="670.196"/>
      <point x="86.8159" y="647" type="curve"/>
      <point x="36" y="647" type="line" smooth="yes"/>
      <point x="21" y="647"/>
      <point x="9" y="643"/>
      <point x="9" y="600" type="curve" smooth="yes"/>
      <point x="9" y="539" type="line" smooth="yes"/>
      <point x="9" y="496"/>
      <point x="21" y="492"/>
      <point x="36" y="492" type="curve" smooth="yes"/>
      <point x="95.3428" y="492" type="line"/>
      <point x="137.028" y="37.7732"/>
      <point x="313.39" y="-20"/>
    </contour>
  </outline>
</glyph>
<glyph name="trademark" format="1">
  <advance width="1256"/>
  <unicode hex="2122"/>
  <outline>
    <contour>
      <point x="576" y="493" type="curve" smooth="yes"/>
      <point x="639" y="493" type="line" smooth="yes"/>
      <point x="649" y="493"/>
      <point x="656" y="512"/>
      <point x="656" y="541" type="curve"/>
      <point x="675" y="1087" type="line" smooth="yes"/>
      <point x="675" y="1089"/>
      <point x="677" y="1092"/>
      <point x="678" y="1090" type="curve" smooth="yes"/>
      <point x="801" y="539" type="line" smooth="yes"/>
      <point x="807" y="511"/>
      <point x="816" y="494"/>
      <point x="826" y="493" type="curve"/>
      <point x="860" y="493" type="line"/>
      <point x="870" y="494"/>
      <point x="879" y="511"/>
      <point x="884" y="539" type="curve"/>
      <point x="1013" y="1096" type="line" smooth="yes"/>
      <point x="1013" y="1098"/>
      <point x="1016" y="1097"/>
      <point x="1016" y="1095" type="curve" smooth="yes"/>
      <point x="1033" y="541" type="line" smooth="yes"/>
      <point x="1034" y="512"/>
      <point x="1040" y="493"/>
      <point x="1050" y="493" type="curve" smooth="yes"/>
      <point x="1109" y="493" type="line" smooth="yes"/>
      <point x="1118.27" y="493"/>
      <point x="1124.11" y="509.343"/>
      <point x="1124.11" y="534.849" type="curve" smooth="yes"/>
      <point x="1124.11" y="536.844"/>
      <point x="1124.07" y="538.896"/>
      <point x="1124" y="541" type="curve" smooth="yes"/>
      <point x="1101" y="1411" type="line" smooth="yes"/>
      <point x="1100" y="1439"/>
      <point x="1094" y="1457"/>
      <point x="1084" y="1458" type="curve"/>
      <point x="1010" y="1458" type="line"/>
      <point x="1001" y="1457"/>
      <point x="992" y="1441"/>
      <point x="986" y="1413" type="curve" smooth="yes"/>
      <point x="846" y="805" type="line" smooth="yes"/>
      <point x="846" y="802"/>
      <point x="841" y="802"/>
      <point x="840" y="805" type="curve" smooth="yes"/>
      <point x="704" y="1413" type="line"/>
      <point x="699" y="1441"/>
      <point x="690" y="1457"/>
      <point x="680" y="1458" type="curve"/>
      <point x="600" y="1458" type="line"/>
      <point x="591" y="1457"/>
      <point x="585" y="1439"/>
      <point x="585" y="1411" type="curve" smooth="yes"/>
      <point x="560" y="541" type="line" smooth="yes"/>
      <point x="559.936" y="539.151"/>
      <point x="559.905" y="537.342"/>
      <point x="559.905" y="535.576" type="curve" smooth="yes"/>
      <point x="559.905" y="509.654"/>
      <point x="566.638" y="493"/>
    </contour>
    <contour>
      <point x="267" y="493" type="curve" smooth="yes"/>
      <point x="359" y="493" type="line" smooth="yes"/>
      <point x="369" y="493"/>
      <point x="375" y="512"/>
      <point x="375" y="541" type="curve" smooth="yes"/>
      <point x="375" y="1292" type="line" smooth="yes"/>
      <point x="375" y="1306"/>
      <point x="378" y="1312"/>
      <point x="383" y="1312" type="curve" smooth="yes"/>
      <point x="490" y="1312" type="line" smooth="yes"/>
      <point x="501" y="1312"/>
      <point x="507" y="1334"/>
      <point x="507" y="1363" type="curve" smooth="yes"/>
      <point x="507" y="1406" type="line" smooth="yes"/>
      <point x="507" y="1435"/>
      <point x="501" y="1458"/>
      <point x="490" y="1458" type="curve" smooth="yes"/>
      <point x="135" y="1458" type="line" smooth="yes"/>
      <point x="125" y="1458"/>
      <point x="119" y="1435"/>
      <point x="119" y="1406" type="curve" smooth="yes"/>
      <point x="119" y="1363" type="line" smooth="yes"/>
      <point x="119" y="1334"/>
      <point x="125" y="1312"/>
      <point x="135" y="1312" type="curve" smooth="yes"/>
      <point x="244" y="1312" type="line" smooth="yes"/>
      <point x="248" y="1312"/>
      <point x="251" y="1306"/>
      <point x="251" y="1292" type="curve" smooth="yes"/>
      <point x="251" y="541" type="line" smooth="yes"/>
      <point x="251" y="512"/>
      <point x="257" y="493"/>
    </contour>
  </outline>
</glyph>
<glyph name="product" format="1">
  <advance width="999"/>
  <unicode hex="220F"/>
  <outline>
    <contour>
      <point x="149" y="0" type="curve" smooth="yes"/>
      <point x="360" y="0" type="line" smooth="yes"/>
      <point x="375" y="0"/>
      <point x="386" y="4"/>
      <point x="386" y="47" type="curve" smooth="yes"/>
      <point x="386" y="1208" type="line" smooth="yes"/>
      <point x="386" y="1228"/>
      <point x="392" y="1231"/>
      <point x="399" y="1231" type="curve" smooth="yes"/>
      <point x="601" y="1231" type="line" smooth="yes"/>
      <point x="608" y="1231"/>
      <point x="614" y="1228"/>
      <point x="614" y="1208" type="curve" smooth="yes"/>
      <point x="614" y="47" type="line" smooth="yes"/>
      <point x="614" y="4"/>
      <point x="626" y="0"/>
      <point x="641" y="0" type="curve" smooth="yes"/>
      <point x="851" y="0" type="line" smooth="yes"/>
      <point x="866" y="0"/>
      <point x="877" y="4"/>
      <point x="877" y="47" type="curve" smooth="yes"/>
      <point x="877" y="1391" type="line" smooth="yes"/>
      <point x="877" y="1434"/>
      <point x="866" y="1438.12"/>
      <point x="851" y="1438" type="curve" smooth="yes"/>
      <point x="149" y="1438" type="line" smooth="yes"/>
      <point x="134" y="1438"/>
      <point x="122" y="1434"/>
      <point x="122" y="1391" type="curve" smooth="yes"/>
      <point x="122" y="47" type="line" smooth="yes"/>
      <point x="122" y="4"/>
      <point x="134" y="0"/>
    </contour>
  </outline>
</glyph>
<glyph name="summation" format="1">
  <advance width="631"/>
  <unicode hex="2211"/>
  <outline>
    <contour>
      <point x="102" y="0" type="curve" smooth="yes"/>
      <point x="553" y="0" type="line" smooth="yes"/>
      <point x="559" y="0"/>
      <point x="566" y="10"/>
      <point x="566" y="30" type="curve" smooth="yes"/>
      <point x="566" y="167" type="line" smooth="yes"/>
      <point x="566" y="187"/>
      <point x="559" y="200"/>
      <point x="553" y="198" type="curve"/>
      <point x="336" y="198" type="line"/>
      <point x="530" y="650" type="line"/>
      <point x="537.824" y="669.561"/>
      <point x="542.108" y="695.851"/>
      <point x="542.108" y="721.733" type="curve" smooth="yes"/>
      <point x="542.108" y="746.195"/>
      <point x="538.281" y="770.293"/>
      <point x="530" y="788" type="curve" smooth="yes"/>
      <point x="336" y="1240" type="line"/>
      <point x="553" y="1240" type="line"/>
      <point x="559" y="1238"/>
      <point x="566" y="1251"/>
      <point x="566" y="1271" type="curve" smooth="yes"/>
      <point x="566" y="1408" type="line" smooth="yes"/>
      <point x="566" y="1428"/>
      <point x="559" y="1438"/>
      <point x="553" y="1438" type="curve" smooth="yes"/>
      <point x="102" y="1438" type="line" smooth="yes"/>
      <point x="95" y="1438"/>
      <point x="88" y="1428"/>
      <point x="88" y="1408" type="curve" smooth="yes"/>
      <point x="88" y="1275" type="line" smooth="yes"/>
      <point x="88" y="1252"/>
      <point x="92" y="1235"/>
      <point x="98" y="1221" type="curve" smooth="yes"/>
      <point x="321" y="722" type="line"/>
      <point x="98" y="207" type="line" smooth="yes"/>
      <point x="91.5264" y="193.212"/>
      <point x="88" y="176"/>
      <point x="88" y="153" type="curve" smooth="yes"/>
      <point x="88" y="30" type="line" smooth="yes"/>
      <point x="88" y="10"/>
      <point x="95" y="0"/>
    </contour>
  </outline>
</glyph>
<glyph name="minus" format="1">
  <advance width="1284"/>
  <unicode hex="2212"/>
  <outline>
    <contour>
      <point x="198" y="565" type="curve" smooth="yes"/>
      <point x="1086" y="565" type="line" smooth="yes"/>
      <point x="1129" y="565"/>
      <point x="1156" y="592"/>
      <point x="1156" y="635" type="curve" smooth="yes"/>
      <point x="1156" y="715" type="line" smooth="yes"/>
      <point x="1156" y="758"/>
      <point x="1129" y="785"/>
      <point x="1086" y="785" type="curve" smooth="yes"/>
      <point x="198" y="785" type="line" smooth="yes"/>
      <point x="155" y="785"/>
      <point x="128" y="758"/>
      <point x="128" y="715" type="curve" smooth="yes"/>
      <point x="128" y="635" type="line" smooth="yes"/>
      <point x="128" y="592"/>
      <point x="155" y="565"/>
    </contour>
  </outline>
</glyph>
<glyph name="integral" format="1">
  <advance width="588"/>
  <unicode hex="222B"/>
  <outline>
    <contour>
      <point x="25.4529" y="-165.443" type="curve" smooth="yes"/>
      <point x="36.9896" y="-165.443"/>
      <point x="50.4706" y="-165"/>
      <point x="66" y="-165" type="curve" smooth="yes"/>
      <point x="190" y="-165"/>
      <point x="327.956" y="-44.9275"/>
      <point x="348" y="236" type="curve" smooth="yes"/>
      <point x="412" y="1133" type="line" smooth="yes"/>
      <point x="421.086" y="1260.34"/>
      <point x="466" y="1306"/>
      <point x="519" y="1306" type="curve" smooth="yes"/>
      <point x="550" y="1306" type="line" smooth="yes"/>
      <point x="562" y="1306"/>
      <point x="565" y="1320"/>
      <point x="568" y="1357" type="curve" smooth="yes"/>
      <point x="575" y="1438" type="line" smooth="yes"/>
      <point x="576" y="1454"/>
      <point x="538" y="1475"/>
      <point x="470" y="1475" type="curve" smooth="yes"/>
      <point x="346" y="1475"/>
      <point x="219.449" y="1401.21"/>
      <point x="194" y="1074" type="curve" smooth="yes"/>
      <point x="124" y="174" type="line" smooth="yes"/>
      <point x="114" y="37"/>
      <point x="70" y="1"/>
      <point x="17" y="1" type="curve" smooth="yes"/>
      <point x="-4" y="1" type="line" smooth="yes"/>
      <point x="-16" y="1"/>
      <point x="-18" y="-13"/>
      <point x="-22" y="-50" type="curve" smooth="yes"/>
      <point x="-22" y="-50"/>
      <point x="-29.0" y="-121.0"/>
      <point x="-29" y="-121" type="curve" smooth="yes"/>
      <point x="-29" y="-160.765"/>
      <point x="-12.0415" y="-165.443"/>
    </contour>
  </outline>
</glyph>
<glyph name="notequal" format="1">
  <advance width="583"/>
  <unicode hex="2260"/>
  <outline>
    <contour>
      <point x="72.7812" y="-229.5" type="curve" smooth="yes"/>
      <point x="185.781" y="-228.5" type="line" smooth="yes"/>
      <point x="192.781" y="-228.5"/>
      <point x="198.398" y="-214.256"/>
      <point x="202.781" y="-193.5" type="curve" smooth="yes"/>
      <point x="487.781" y="1347.5" type="line" smooth="yes"/>
      <point x="488.419" y="1350.95"/>
      <point x="488.67" y="1354.44"/>
      <point x="488.67" y="1357.81" type="curve" smooth="yes"/>
      <point x="488.67" y="1371.06"/>
      <point x="484.361" y="1382.5"/>
      <point x="478.781" y="1382.5" type="curve" smooth="yes"/>
      <point x="367.781" y="1382.5" type="line" smooth="yes"/>
      <point x="359.781" y="1382.5"/>
      <point x="353.637" y="1368.36"/>
      <point x="349.781" y="1347.5" type="curve" smooth="yes"/>
      <point x="64.7812" y="-194.5" type="line" smooth="yes"/>
      <point x="64.2344" y="-197.091"/>
      <point x="64.3301" y="-199.789"/>
      <point x="64.3301" y="-202.398" type="curve" smooth="yes"/>
      <point x="64.3301" y="-216.643"/>
      <point x="68.5557" y="-229.537"/>
    </contour>
    <contour>
      <point x="51" y="323" type="curve" smooth="yes"/>
      <point x="533" y="323" type="line" smooth="yes"/>
      <point x="547" y="323"/>
      <point x="559" y="327"/>
      <point x="559" y="370" type="curve" smooth="yes"/>
      <point x="559" y="431" type="line" smooth="yes"/>
      <point x="559" y="474"/>
      <point x="547" y="478"/>
      <point x="533" y="478" type="curve" smooth="yes"/>
      <point x="51" y="478" type="line" smooth="yes"/>
      <point x="36" y="478"/>
      <point x="24" y="474"/>
      <point x="24" y="431" type="curve" smooth="yes"/>
      <point x="24" y="370" type="line" smooth="yes"/>
      <point x="24" y="327"/>
      <point x="36" y="323"/>
    </contour>
    <contour>
      <point x="51" y="610" type="curve" smooth="yes"/>
      <point x="533" y="610" type="line" smooth="yes"/>
      <point x="547" y="610"/>
      <point x="559" y="614"/>
      <point x="559" y="657" type="curve" smooth="yes"/>
      <point x="559" y="718" type="line" smooth="yes"/>
      <point x="559" y="761"/>
      <point x="547" y="765"/>
      <point x="533" y="765" type="curve" smooth="yes"/>
      <point x="51" y="765" type="line" smooth="yes"/>
      <point x="36" y="765"/>
      <point x="24" y="761"/>
      <point x="24" y="718" type="curve" smooth="yes"/>
      <point x="24" y="657" type="line" smooth="yes"/>
      <point x="24" y="614"/>
      <point x="36" y="610"/>
    </contour>
  </outline>
</glyph>
<glyph name="uni0311" format="1">
  <advance width="1680"/>
  <outline>
    <contour>
      <point x="426" y="1296" type="curve"/>
      <point x="523" y="1296" type="line"/>
      <point x="523" y="1376"/>
      <point x="576" y="1399"/>
      <point x="630" y="1399" type="curve" smooth="yes"/>
      <point x="684" y="1399"/>
      <point x="738" y="1375"/>
      <point x="738" y="1296" type="curve"/>
      <point x="839" y="1296" type="line"/>
      <point x="838" y="1448"/>
      <point x="736" y="1507"/>
      <point x="633" y="1507" type="curve" smooth="yes"/>
      <point x="530" y="1507"/>
      <point x="427" y="1448"/>
    </contour>
  </outline>
</glyph>
